<svg width="48" height="48" viewBox="0 0 48 48" fill="none" xmlns="http://www.w3.org/2000/svg">
<path d="M13 36L13 35.821C12.9998 34.0898 12.9996 32.5024 13.1732 31.2112C13.3644 29.7893 13.8142 28.2864 15.0503 27.0503C16.2864 25.8142 17.7893 25.3644 19.2112 25.1732C20.5024 24.9996 22.0898 24.9998 23.821 25H24.179C25.9103 24.9998 27.4976 24.9996 28.7889 25.1732C30.2108 25.3644 31.7137 25.8142 32.9498 27.0503C34.1859 28.2864 34.6357 29.7893 34.8268 31.2112C34.9979 32.4834 35.0002 34.043 35.0001 35.7445C40.1452 34.6441 44 30.1199 44 24.7059C44 19.7623 40.7859 15.5605 36.3102 14.03C35.6742 8.38742 30.8318 4 24.9524 4C18.6406 4 13.5238 9.05655 13.5238 15.2941C13.5238 16.6737 13.7741 17.9956 14.2323 19.2177C13.695 19.1135 13.1397 19.0588 12.5714 19.0588C7.83756 19.0588 4 22.8512 4 27.5294C4 32.2076 7.83756 36 12.5714 36L13 36Z" fill="#F1A640" fill-opacity="0.18" stroke="#F1A640" stroke-width="1.5" stroke-linecap="round"/>
<path fill-rule="evenodd" clip-rule="evenodd" d="M24 44C20.2288 44 18.3431 44 17.1716 42.8284C16 41.6569 16 39.7712 16 36C16 32.2288 16 30.3431 17.1716 29.1716C18.3431 28 20.2288 28 24 28C27.7712 28 29.6569 28 30.8284 29.1716C32 30.3431 32 32.2288 32 36C32 39.7712 32 41.6569 30.8284 42.8284C29.6569 44 27.7712 44 24 44ZM28.4984 34.2761C29.0191 33.7554 29.0191 32.9112 28.4984 32.3905C27.9777 31.8698 27.1334 31.8698 26.6127 32.3905L22.2222 36.781L21.3873 35.9461C20.8666 35.4254 20.0223 35.4254 19.5016 35.9461C18.9809 36.4668 18.9809 37.311 19.5016 37.8317L21.2794 39.6095C21.8001 40.1302 22.6443 40.1302 23.165 39.6095L28.4984 34.2761Z" fill="url(#paint0_linear_173_1152)"/>
<defs>
<linearGradient id="paint0_linear_173_1152" x1="16" y1="36" x2="32" y2="36" gradientUnits="userSpaceOnUse">
<stop stop-color="#E9442F"/>
<stop offset="1" stop-color="#F29531"/>
</linearGradient>
</defs>
</svg>
