<svg width="48" height="48" viewBox="0 0 48 48" fill="none" xmlns="http://www.w3.org/2000/svg">
<path fill-rule="evenodd" clip-rule="evenodd" d="M28.5004 8.95908L28.5003 15.0744C28.5 15.2968 28.4995 15.614 28.5421 15.8862C28.5941 16.219 28.7653 16.8616 29.4306 17.2522C30.0713 17.6284 30.6981 17.4887 30.9959 17.3961C31.2556 17.3154 31.5404 17.1798 31.7527 17.0786L34.0004 16.0109L36.248 17.0786C36.4603 17.1797 36.7451 17.3154 37.0048 17.3961C37.3027 17.4887 37.9294 17.6284 38.5701 17.2522C39.2355 16.8616 39.4066 16.219 39.4587 15.8862C39.5012 15.614 39.5007 15.2969 39.5004 15.0745L39.5004 6.06261C39.7259 6.052 39.9475 6.04303 40.164 6.03549C42.3076 5.96083 44 7.72149 44 9.86639V32.2872C44 34.5091 42.1879 36.3069 39.9703 36.4456C38.0315 36.5669 35.7534 36.804 34 37.2667C31.8371 37.8375 30.0216 39.4017 27.2552 40.1385C26.0029 40.472 24.6061 40.6515 24.0004 40.7851V10.3477C24.6419 10.1906 26.7648 9.94283 27.3477 9.60551C27.7163 9.39219 28.1027 9.17463 28.5004 8.95908ZM39.4556 25.6362C39.6565 26.4399 39.1679 27.2543 38.3642 27.4552L30.3642 29.4552C29.5605 29.6561 28.7461 29.1675 28.5452 28.3638C28.3442 27.5601 28.8329 26.7457 29.6366 26.5448L37.6366 24.5448C38.4403 24.3439 39.2547 24.8325 39.4556 25.6362Z" fill="url(#paint0_linear_173_1155)"/>
<path d="M36.5004 6.30201C35.2603 6.44862 34.0412 6.66318 33 6.97489C32.517 7.1195 32.0127 7.30282 31.5004 7.51279V7.90004V13.8772L32.999 13.1653L33.0166 13.1564C33.1146 13.1063 33.5277 12.8951 34.0004 12.8951C34.0954 12.8951 34.1881 12.9037 34.2763 12.9177C34.6265 12.9736 34.9058 13.1164 34.9841 13.1564L35.0017 13.1653L36.5004 13.8772V7.2933V6.30201Z" fill="url(#paint1_linear_173_1155)"/>
<path opacity="0.5" d="M24 10.4279C23.3315 10.3009 21.8852 10.1053 20.5645 9.75088C17.8762 9.0295 16.0984 7.52858 14 6.97485C12.227 6.50698 9.91755 6.26976 7.9648 6.14974C5.7726 6.01501 4 7.79923 4 9.99557V32.2871C4 34.5091 5.81209 36.3069 8.02972 36.4456C9.96856 36.5669 12.2466 36.804 14 37.2667C14.9719 37.5232 16.4323 38.129 17.7459 38.7185C19.755 39.62 21.8495 40.3112 24 40.7852V10.4279Z" fill="#F1A640" fill-opacity="0.18" stroke="#F1A640" stroke-width="1.5"/>
<path d="M8.54514 25.6365C8.74606 24.8329 9.56047 24.3442 10.3642 24.5451L18.3642 26.5451C19.1679 26.7461 19.6565 27.5605 19.4556 28.3642C19.2546 29.1678 18.4402 29.6565 17.6366 29.4556L9.63655 27.4556C8.83286 27.2546 8.34422 26.4402 8.54514 25.6365Z" fill="url(#paint2_linear_173_1155)"/>
<path d="M10.3642 16.5451C9.56047 16.3442 8.74606 16.8329 8.54514 17.6366C8.34422 18.4402 8.83286 19.2546 9.63655 19.4556L17.6366 21.4556C18.4402 21.6565 19.2546 21.1679 19.4556 20.3642C19.6565 19.5605 19.1679 18.7461 18.3642 18.5451L10.3642 16.5451Z" fill="url(#paint3_linear_173_1155)"/>
<defs>
<linearGradient id="paint0_linear_173_1155" x1="24.0004" y1="23.4091" x2="44" y2="23.4091" gradientUnits="userSpaceOnUse">
<stop stop-color="#E9442F"/>
<stop offset="1" stop-color="#F29531"/>
</linearGradient>
<linearGradient id="paint1_linear_173_1155" x1="24.0004" y1="23.4091" x2="44" y2="23.4091" gradientUnits="userSpaceOnUse">
<stop stop-color="#E9442F"/>
<stop offset="1" stop-color="#F29531"/>
</linearGradient>
<linearGradient id="paint2_linear_173_1155" x1="8.5" y1="23.0004" x2="19.5007" y2="23.0004" gradientUnits="userSpaceOnUse">
<stop stop-color="#E9442F"/>
<stop offset="1" stop-color="#F29531"/>
</linearGradient>
<linearGradient id="paint3_linear_173_1155" x1="8.5" y1="23.0004" x2="19.5007" y2="23.0004" gradientUnits="userSpaceOnUse">
<stop stop-color="#E9442F"/>
<stop offset="1" stop-color="#F29531"/>
</linearGradient>
</defs>
</svg>
