<svg width="48" height="48" viewBox="0 0 48 48" fill="none" xmlns="http://www.w3.org/2000/svg">
<path fill-rule="evenodd" clip-rule="evenodd" d="M14 10H22C25.7712 10 27.6569 10 28.8284 11.1716C30 12.3431 30 14.2288 30 18V42.5H33H42H44C44.8284 42.5 45.5 43.1716 45.5 44C45.5 44.8284 44.8284 45.5 44 45.5H4C3.17157 45.5 2.5 44.8284 2.5 44C2.5 43.1716 3.17157 42.5 4 42.5H6V18C6 14.2288 6 12.3431 7.17157 11.1716C8.34315 10 10.2288 10 14 10ZM10.5 16C10.5 15.1716 11.1716 14.5 12 14.5H24C24.8284 14.5 25.5 15.1716 25.5 16C25.5 16.8284 24.8284 17.5 24 17.5H12C11.1716 17.5 10.5 16.8284 10.5 16ZM10.5 22C10.5 21.1716 11.1716 20.5 12 20.5H24C24.8284 20.5 25.5 21.1716 25.5 22C25.5 22.8284 24.8284 23.5 24 23.5H12C11.1716 23.5 10.5 22.8284 10.5 22ZM10.5 28C10.5 27.1716 11.1716 26.5 12 26.5H24C24.8284 26.5 25.5 27.1716 25.5 28C25.5 28.8284 24.8284 29.5 24 29.5H12C11.1716 29.5 10.5 28.8284 10.5 28ZM18 36.5C18.8284 36.5 19.5 37.1716 19.5 38V42.5H16.5V38C16.5 37.1716 17.1716 36.5 18 36.5Z" fill="url(#paint0_linear_173_1159)"/>
<path opacity="0.5" d="M29.9999 4H33.9999C37.7712 4 39.6568 4 40.8284 5.17157C41.9999 6.34315 41.9999 8.22876 41.9999 12V42.5H30V18C30 14.2288 30 12.3431 28.8284 11.1716C27.6832 10.0264 25.8558 10.0006 22.252 10V6.99998C22.4205 6.22549 22.7019 5.64117 23.1715 5.17157C24.3431 4 26.2287 4 29.9999 4Z" fill="#F1A640" fill-opacity="0.18" stroke="#F1A640" stroke-width="1.5" stroke-linecap="round"/>
<defs>
<linearGradient id="paint0_linear_173_1159" x1="2.5" y1="27.75" x2="45.5" y2="27.75" gradientUnits="userSpaceOnUse">
<stop stop-color="#E9442F"/>
<stop offset="1" stop-color="#F29531"/>
</linearGradient>
</defs>
</svg>
