<svg width="48" height="48" viewBox="0 0 48 48" fill="none" xmlns="http://www.w3.org/2000/svg">
<path fill-rule="evenodd" clip-rule="evenodd" d="M5.17157 24.6716C4 25.8431 4 27.7288 4 31.5C4 35.2712 4 37.1569 5.17157 38.3284C6.34315 39.5 8.22876 39.5 12 39.5H36C39.7712 39.5 41.6568 39.5 42.8284 38.3284C44 37.1569 44 35.2712 44 31.5C44 27.7288 44 25.8431 42.8284 24.6716C41.6568 23.5 39.7712 23.5 36 23.5H12C8.22876 23.5 6.34315 23.5 5.17157 24.6716ZM12 33.5C13.1046 33.5 14 32.6046 14 31.5C14 30.3954 13.1046 29.5 12 29.5C10.8954 29.5 10 30.3954 10 31.5C10 32.6046 10.8954 33.5 12 33.5ZM20 31.5C20 32.6046 19.1046 33.5 18 33.5C16.8954 33.5 16 32.6046 16 31.5C16 30.3954 16.8954 29.5 18 29.5C19.1046 29.5 20 30.3954 20 31.5ZM28 30C27.1716 30 26.5 30.6716 26.5 31.5C26.5 32.3284 27.1716 33 28 33H36C36.8284 33 37.5 32.3284 37.5 31.5C37.5 30.6716 36.8284 30 36 30H28Z" fill="url(#paint0_linear_173_1162)"/>
<path opacity="0.5" d="M7.30262 8.75605C6.89161 8.03677 5.97532 7.78688 5.25605 8.19789C4.53677 8.60891 4.28688 9.52519 4.69789 10.2445L12.2725 23.5H15.7197L15.3026 22.756L7.30262 8.75605Z" fill="#F1A640" fill-opacity="0.18" stroke="#F1A640" stroke-linecap="round"/>
<path opacity="0.5" d="M40.6974 8.75605C41.1084 8.03677 42.0247 7.78688 42.744 8.19789C43.4633 8.60891 43.7132 9.52519 43.3021 10.2445L35.7275 23.5H32.2803L32.6974 22.756L40.6974 8.75605Z" fill="#F1A640" fill-opacity="0.18" stroke="#F1A640" stroke-linecap="round"/>
<path opacity="0.4" fill-rule="evenodd" clip-rule="evenodd" d="M24.1677 7C20.2099 7 16.8139 9.42063 15.3862 12.868C15.0693 13.6334 14.1918 13.9969 13.4265 13.6799C12.6611 13.3629 12.2976 12.4855 12.6145 11.7201C14.4903 7.19079 18.9546 4 24.1677 4C29.3807 4 33.845 7.19079 35.7208 11.7201C36.0378 12.4855 35.6742 13.3629 34.9089 13.6799C34.1435 13.9969 33.266 13.6334 32.9491 12.868C31.5214 9.42063 28.1254 7 24.1677 7Z" fill="#F1A640" fill-opacity="0.18" stroke="#F1A640" stroke-linecap="round"/>
<path opacity="0.7" fill-rule="evenodd" clip-rule="evenodd" d="M24.1691 12C22.1244 12 20.3947 13.3649 19.8485 15.2364C19.6165 16.0317 18.7837 16.4882 17.9884 16.2562C17.1931 16.0241 16.7366 15.1913 16.9686 14.396C17.8781 11.2794 20.7555 9 24.1691 9C27.5828 9 30.4601 11.2794 31.3696 14.396C31.6016 15.1913 31.1451 16.0241 30.3498 16.2562C29.5546 16.4882 28.7218 16.0317 28.4897 15.2364C27.9436 13.3649 26.2138 12 24.1691 12Z" fill="#F1A640" fill-opacity="0.18" stroke="#F1A640" stroke-linecap="round"/>
<path d="M26.168 15.5C26.168 16.6046 25.2725 17.5 24.168 17.5C23.0634 17.5 22.168 16.6046 22.168 15.5C22.168 14.3954 23.0634 13.5 24.168 13.5C25.2725 13.5 26.168 14.3954 26.168 15.5Z" fill="url(#paint1_linear_173_1162)"/>
<defs>
<linearGradient id="paint0_linear_173_1162" x1="4" y1="31.5" x2="44" y2="31.5" gradientUnits="userSpaceOnUse">
<stop stop-color="#E9442F"/>
<stop offset="1" stop-color="#F29531"/>
</linearGradient>
<linearGradient id="paint1_linear_173_1162" x1="22.168" y1="15.5" x2="26.168" y2="15.5" gradientUnits="userSpaceOnUse">
<stop stop-color="#E9442F"/>
<stop offset="1" stop-color="#F29531"/>
</linearGradient>
</defs>
</svg>
