<svg width="48" height="48" viewBox="0 0 48 48" fill="none" xmlns="http://www.w3.org/2000/svg">
<path d="M8 32V42.5H40V32C40 23.1634 32.8366 16 24 16C15.1634 16 8 23.1634 8 32Z" fill="#F1A640" fill-opacity="0.18" stroke="#F1A640" stroke-linecap="round"/>
<path d="M25.5 4C25.5 3.17157 24.8284 2.5 24 2.5C23.1716 2.5 22.5 3.17157 22.5 4V10C22.5 10.8284 23.1716 11.5 24 11.5C24.8284 11.5 25.5 10.8284 25.5 10V4Z" fill="url(#paint0_linear_173_1169)"/>
<path d="M43.0607 10.9393C43.6464 11.5251 43.6464 12.4749 43.0607 13.0607L40.0607 16.0607C39.4749 16.6464 38.5251 16.6464 37.9393 16.0607C37.3536 15.4749 37.3536 14.5251 37.9393 13.9393L40.9393 10.9393C41.5251 10.3536 42.4749 10.3536 43.0607 10.9393Z" fill="url(#paint1_linear_173_1169)"/>
<path d="M7.06066 10.9393C6.47487 10.3536 5.52513 10.3536 4.93934 10.9393C4.35355 11.5251 4.35355 12.4749 4.93934 13.0607L7.93934 16.0607C8.52513 16.6464 9.47487 16.6464 10.0607 16.0607C10.6464 15.4749 10.6464 14.5251 10.0607 13.9393L7.06066 10.9393Z" fill="url(#paint2_linear_173_1169)"/>
<path d="M29.1433 21.6095C28.3754 21.2987 27.5009 21.6692 27.1901 22.4371C26.8792 23.205 27.2498 24.0795 28.0177 24.3903C29.6465 25.0497 30.9492 26.3524 31.6086 27.9812C31.9194 28.7491 32.7939 29.1196 33.5618 28.8088C34.3297 28.498 34.7002 27.6235 34.3894 26.8556C33.4252 24.4736 31.5252 22.5737 29.1433 21.6095Z" fill="url(#paint3_linear_173_1169)"/>
<path d="M25.5 37.5987C26.3967 37.0799 27 36.1104 27 35C27 33.3431 25.6569 32 24 32C22.3431 32 21 33.3431 21 35C21 36.1104 21.6033 37.0799 22.5 37.5987V42.5H25.5V37.5987Z" fill="url(#paint4_linear_173_1169)"/>
<path d="M8 42.5H4C3.17157 42.5 2.5 43.1716 2.5 44C2.5 44.8284 3.17157 45.5 4 45.5H44C44.8284 45.5 45.5 44.8284 45.5 44C45.5 43.1716 44.8284 42.5 44 42.5H40H25.5H22.5H8Z" fill="url(#paint5_linear_173_1169)"/>
<defs>
<linearGradient id="paint0_linear_173_1169" x1="4.5" y1="9.5" x2="43.5" y2="9.5" gradientUnits="userSpaceOnUse">
<stop stop-color="#E9442F"/>
<stop offset="1" stop-color="#F29531"/>
</linearGradient>
<linearGradient id="paint1_linear_173_1169" x1="4.5" y1="9.5" x2="43.5" y2="9.5" gradientUnits="userSpaceOnUse">
<stop stop-color="#E9442F"/>
<stop offset="1" stop-color="#F29531"/>
</linearGradient>
<linearGradient id="paint2_linear_173_1169" x1="4.5" y1="9.5" x2="43.5" y2="9.5" gradientUnits="userSpaceOnUse">
<stop stop-color="#E9442F"/>
<stop offset="1" stop-color="#F29531"/>
</linearGradient>
<linearGradient id="paint3_linear_173_1169" x1="27.0801" y1="25.2092" x2="34.4994" y2="25.2092" gradientUnits="userSpaceOnUse">
<stop stop-color="#E9442F"/>
<stop offset="1" stop-color="#F29531"/>
</linearGradient>
<linearGradient id="paint4_linear_173_1169" x1="21" y1="37.25" x2="27" y2="37.25" gradientUnits="userSpaceOnUse">
<stop stop-color="#E9442F"/>
<stop offset="1" stop-color="#F29531"/>
</linearGradient>
<linearGradient id="paint5_linear_173_1169" x1="2.5" y1="44" x2="45.5" y2="44" gradientUnits="userSpaceOnUse">
<stop stop-color="#E9442F"/>
<stop offset="1" stop-color="#F29531"/>
</linearGradient>
</defs>
</svg>
