<svg width="48" height="48" viewBox="0 0 48 48" fill="none" xmlns="http://www.w3.org/2000/svg">
<path fill-rule="evenodd" clip-rule="evenodd" d="M21.1627 4.50001L21.1219 4.5C20.8949 4.49997 20.7182 4.49994 20.551 4.51007C18.4301 4.63851 16.5729 5.9771 15.7804 7.94851C15.7176 8.10477 15.6142 8.41512 15.5405 8.6365L15.5327 8.65978C15.3265 9.21962 14.9542 9.70447 14.5231 10.0507C14.0682 10.0654 13.6337 10.0844 13.2183 10.1089C9.93038 10.3029 7.84386 10.8424 6.34314 12.3432C5.85382 12.8325 5.46668 13.3841 5.16039 14.0193C5.27554 14.0586 5.38774 14.1126 5.49441 14.182C9.69499 16.9123 12.3342 18.6202 14.5271 19.7157C14.66 19.0233 15.269 18.5002 16.0002 18.5002C16.8286 18.5002 17.5002 19.1718 17.5002 20.0002V20.916C21.739 22.1951 26.2613 22.1952 30.5002 20.9161V20.0002C30.5002 19.1718 31.1717 18.5002 32.0002 18.5002C32.7314 18.5002 33.3404 19.0234 33.4733 19.7159C35.6663 18.6203 38.3055 16.9125 42.5063 14.182C42.6127 14.1128 42.7248 14.0588 42.8397 14.0195C42.5334 13.3842 42.1462 12.8325 41.6569 12.3432C40.1561 10.8424 38.0696 10.3029 34.7817 10.1089C34.3874 10.0856 33.9758 10.0673 33.5459 10.053C33.5188 10.0309 33.4916 10.0081 33.4644 9.98463C32.983 9.56871 32.6066 9.02022 32.4168 8.50577L32.4106 8.48689C32.3388 8.27153 32.283 8.10389 32.2205 7.94851C31.428 5.9771 29.5708 4.63851 27.4499 4.51007C27.2827 4.49994 27.106 4.49997 26.879 4.5L21.1627 4.50001ZM29.6353 9.63138L29.6262 9.60991L29.6165 9.58572L29.6073 9.56183L29.6 9.54194L29.5965 9.53193L29.588 9.50746L29.5803 9.48487L29.5762 9.47234L29.5707 9.45566L29.5662 9.44157L29.5627 9.4302C29.4839 9.19416 29.4597 9.12408 29.437 9.06751C29.0767 8.17141 28.2326 7.56296 27.2685 7.50458C27.204 7.50067 27.1249 7.50001 26.8382 7.50001H21.1627C20.876 7.50001 20.7969 7.50067 20.7324 7.50458C19.7685 7.56296 18.9244 8.17122 18.5641 9.06708L18.5588 9.08105L18.5429 9.12489C18.5296 9.16209 18.5134 9.20858 18.4948 9.26313C18.4617 9.35988 18.4246 9.47091 18.387 9.58372L18.3834 9.59554L18.3789 9.60961L18.3734 9.62629L18.3692 9.63882L18.3616 9.66142L18.3531 9.6859L18.3495 9.69592L18.3423 9.71582L18.3331 9.73974L18.3234 9.76399L18.315 9.7838L18.3137 9.78672C18.2859 9.85842 18.2564 9.92997 18.2253 10.0013C18.7925 10 19.3837 10 20 10H28C28.623 10 29.2202 10 29.793 10.0013C29.7361 9.87911 29.6834 9.75569 29.6353 9.63138Z" fill="url(#paint0_linear_173_1175)"/>
<path d="M4.32416 16.999C4 19.2066 4 22.0987 4 25.9997C4 33.5421 4 37.3134 6.34315 39.6565C8.68629 41.9997 12.4575 41.9997 20 41.9997H28C35.5425 41.9997 39.3137 41.9997 41.6569 39.6565C44 37.3134 44 33.5421 44 25.9997C44 22.099 44 19.2069 43.6759 16.9994C39.1226 19.9591 36.2042 21.8466 33.5002 23.009V23.9998C33.5002 24.8283 32.8286 25.4998 32.0002 25.4998C31.1827 25.4998 30.518 24.8459 30.5005 24.0326C26.24 25.1559 21.7604 25.1558 17.4998 24.0326C17.4824 24.8459 16.8177 25.4998 16.0002 25.4998C15.1717 25.4998 14.5002 24.8283 14.5002 23.9998V23.0088C11.7961 21.8464 8.87762 19.9588 4.32416 16.999Z" fill="#F1A640" fill-opacity="0.18" stroke="#F1A640" stroke-width="1.5"/>
<defs>
<linearGradient id="paint0_linear_173_1175" x1="5.16039" y1="13.1877" x2="42.8397" y2="13.1877" gradientUnits="userSpaceOnUse">
<stop stop-color="#E9442F"/>
<stop offset="1" stop-color="#F29531"/>
</linearGradient>
</defs>
</svg>
