<svg width="48" height="48" viewBox="0 0 48 48" fill="none" xmlns="http://www.w3.org/2000/svg">
<path fill-rule="evenodd" clip-rule="evenodd" d="M26.2183 26.9998C24.9398 25.9102 23.0594 25.9102 21.781 26.9998C21.2331 27.4666 20.5519 27.7488 19.8344 27.8061C18.1599 27.9397 16.8303 29.2693 16.6967 30.9437C16.6394 31.6613 16.3573 32.3425 15.8904 32.8903C14.8009 34.1688 14.8009 36.0492 15.8904 37.3277C16.3573 37.8756 16.6394 38.5567 16.6967 39.2743C16.8303 40.9487 18.1599 42.2783 19.8344 42.412C20.5519 42.4692 21.2331 42.7514 21.781 43.2183C23.0594 44.3078 24.9398 44.3078 26.2183 43.2183C26.7662 42.7514 27.4474 42.4692 28.1649 42.412C29.8393 42.2783 31.169 40.9487 31.3026 39.2743C31.3598 38.5567 31.642 37.8756 32.1089 37.3277C33.1984 36.0492 33.1984 34.1688 32.1089 32.8903C31.642 32.3425 31.3598 31.6613 31.3026 30.9437C31.169 29.2693 29.8393 27.9397 28.1649 27.8061C27.4474 27.7488 26.7662 27.4666 26.2183 26.9998ZM28.0235 34.206C28.6291 33.6407 28.6618 32.6915 28.0966 32.0859C27.5313 31.4803 26.5822 31.4475 25.9765 32.0128L22.7143 35.0576L22.0235 34.4128C21.4179 33.8475 20.4687 33.8803 19.9034 34.4859C19.3382 35.0915 19.3709 36.0407 19.9765 36.606L21.6908 38.206C22.2671 38.7439 23.1615 38.7439 23.7378 38.206L28.0235 34.206Z" fill="url(#paint0_linear_173_1178)"/>
<path d="M4 24V16C4 10.3431 4 7.51472 5.75736 5.75736C7.51472 4 10.3431 4 16 4H32C37.6569 4 40.4853 4 42.2426 5.75736C44 7.51472 44 10.3431 44 16V24C44 29.6569 44 32.4853 42.2426 34.2426C40.5711 35.9142 37.9304 35.9958 32.8084 35.9998C33.0935 34.9404 32.8603 33.7723 32.1089 32.8906C31.642 32.3427 31.3598 31.6615 31.3026 30.944C31.169 29.2696 29.8393 27.9399 28.1649 27.8063C27.4474 27.749 26.7662 27.4669 26.2183 27C24.9398 25.9105 23.0594 25.9105 21.781 27C21.2331 27.4669 20.5519 27.749 19.8344 27.8063C18.1599 27.9399 16.8303 29.2696 16.6967 30.944C16.6394 31.6615 16.3573 32.3427 15.8904 32.8906C15.139 33.7723 14.9058 34.9404 15.1909 35.9998C10.0693 35.9958 7.42885 35.9141 5.75736 34.2426C4 32.4853 4 29.6569 4 24Z" fill="#F1A640" fill-opacity="0.18" stroke="#F1A640" stroke-width="1.5"/>
<path d="M16.5 12C16.5 11.1716 17.1716 10.5 18 10.5H30C30.8284 10.5 31.5 11.1716 31.5 12C31.5 12.8284 30.8284 13.5 30 13.5H18C17.1716 13.5 16.5 12.8284 16.5 12Z" fill="url(#paint1_linear_173_1178)"/>
<path d="M14 17.5C13.1716 17.5 12.5 18.1716 12.5 19C12.5 19.8284 13.1716 20.5 14 20.5H34C34.8284 20.5 35.5 19.8284 35.5 19C35.5 18.1716 34.8284 17.5 34 17.5H14Z" fill="url(#paint2_linear_173_1178)"/>
<defs>
<linearGradient id="paint0_linear_173_1178" x1="15.0732" y1="35.109" x2="32.926" y2="35.109" gradientUnits="userSpaceOnUse">
<stop stop-color="#E9442F"/>
<stop offset="1" stop-color="#F29531"/>
</linearGradient>
<linearGradient id="paint1_linear_173_1178" x1="12.5" y1="15.5" x2="35.5" y2="15.5" gradientUnits="userSpaceOnUse">
<stop stop-color="#E9442F"/>
<stop offset="1" stop-color="#F29531"/>
</linearGradient>
<linearGradient id="paint2_linear_173_1178" x1="12.5" y1="15.5" x2="35.5" y2="15.5" gradientUnits="userSpaceOnUse">
<stop stop-color="#E9442F"/>
<stop offset="1" stop-color="#F29531"/>
</linearGradient>
</defs>
</svg>
