<svg width="48" height="48" viewBox="0 0 48 48" fill="none" xmlns="http://www.w3.org/2000/svg">
<path d="M12.4442 9.20209C13.3333 8.60799 14.2669 8.09272 15.2342 7.65952C17.978 6.43077 19.3498 5.81639 21.1749 6.99881C23 8.18122 23 10.1208 23 14V17C23 20.7712 23 22.6569 24.1716 23.8284C25.3432 25 27.2288 25 31 25H34C37.8792 25 39.8188 25 41.0012 26.8251C42.1836 28.6502 41.5692 30.0221 40.3405 32.7658C39.9073 33.7331 39.392 34.6667 38.7979 35.5558C36.7102 38.6804 33.7428 41.1157 30.271 42.5537C26.7992 43.9918 22.9789 44.368 19.2933 43.6349C15.6077 42.9018 12.2222 41.0922 9.56498 38.435C6.90778 35.7778 5.09821 32.3924 4.36509 28.7067C3.63197 25.0211 4.00823 21.2008 5.4463 17.729C6.88436 14.2572 9.31964 11.2898 12.4442 9.20209Z" fill="#F1A640" fill-opacity="0.18" stroke="#F1A640"/>
<path d="M42.8921 14.138C41.2685 10.0166 37.9834 6.73158 33.862 5.10796C30.7789 3.89338 28 6.68632 28 10V18C28 19.1046 28.8954 20 30 20H38C41.3137 20 44.1067 17.2211 42.8921 14.138Z" fill="url(#paint0_linear_173_1103)"/>
<defs>
<linearGradient id="paint0_linear_173_1103" x1="28" y1="12.4092" x2="43.1817" y2="12.4092" gradientUnits="userSpaceOnUse">
<stop stop-color="#E9442F"/>
<stop offset="1" stop-color="#F29531"/>
</linearGradient>
</defs>
</svg>
