<svg xmlns="http://www.w3.org/2000/svg" width="24" height="24" viewBox="0 0 24 24" fill="none">
<g clip-path="url(#clip0_173_1219)">
<path d="M9.15 0.47998C8.40938 0.523106 7.2075 0.733106 6.57 1.78498L3.645 6.85498L3.405 7.27498L3.825 7.51498L5.52 8.48998L1.515 8.98498L0.0900047 9.14998L1.32 9.86998L1.755 10.125L0.300005 12.585C0.11813 12.9 0.0112547 13.2994 4.70254e-06 13.755C-0.0112453 14.2106 0.0787549 14.7319 0.375005 15.18C0.558755 15.4594 1.23938 16.6612 1.89 17.82C2.4975 18.9019 3.04875 19.8712 3.315 20.295C3.33188 20.3437 3.35813 20.3887 3.39 20.43C3.39375 20.4356 3.40125 20.4394 3.405 20.445C3.81563 21.0619 4.58438 21.9806 5.805 22.005H12.135V19.575L14.565 22.8L15.435 23.94V22.005L18.3 22.05C18.6638 22.05 19.0556 21.9225 19.455 21.705C19.8544 21.4875 20.25 21.165 20.49 20.685C20.64 20.385 21.3431 19.1869 22.02 18.045C22.6631 16.9612 23.2631 15.9712 23.49 15.54C23.5144 15.5081 23.535 15.4725 23.55 15.435C23.5519 15.4312 23.5481 15.4237 23.55 15.42C23.8819 14.7562 24.2888 13.6406 23.7 12.57V12.555L20.775 7.48498L20.535 7.07998L20.115 7.31998L18.435 8.29498L19.995 4.57498L20.565 3.25498L19.32 3.97498L18.9 4.21498L17.49 1.72498H17.475C17.2931 1.40998 17.0081 1.12123 16.62 0.88498C16.2394 0.65248 15.7631 0.47248 15.24 0.49498C15.2344 0.49498 15.2306 0.49498 15.225 0.49498C15.2119 0.49498 15.1781 0.49498 15.165 0.49498C14.16 0.51748 11.8256 0.489355 9.18 0.47998H9.15ZM9.165 1.43998C9.17813 1.43998 9.18188 1.43998 9.195 1.43998C10.9425 1.44561 11.9775 1.45123 13.17 1.45498C12.9544 1.66498 12.6938 1.84498 12.555 2.08498L11.64 3.67498L11.625 3.70498C11.6006 3.73686 11.58 3.77248 11.565 3.80998L8.505 9.10498L4.71 6.91498L7.395 2.27998C7.77 1.65936 8.54813 1.47936 9.165 1.43998ZM15.18 1.45498C15.2006 1.45686 15.2194 1.45686 15.24 1.45498C15.2456 1.45498 15.2494 1.45498 15.255 1.45498C15.5344 1.43811 15.8475 1.54873 16.11 1.70998C16.3725 1.87123 16.5881 2.09811 16.65 2.20498L18.3 5.11498L18.54 5.53498L18.57 5.51998L17.475 8.06998L14.745 7.73998L14.76 7.72498L14.52 7.30498L12.585 3.94498L13.38 2.56498C13.6819 2.04186 14.4281 1.47373 15.18 1.45498ZM12.03 4.91998L13.44 7.36498L13.02 7.61998L11.775 8.33998L13.2 8.50498L17.205 8.99998L15.495 9.97498L15.09 10.215L15.33 10.635L18.255 15.72H15.435V13.785L14.565 14.94L12.135 18.165V15.72H5.79L7.2 13.26L7.635 13.515L8.88 14.235L8.31 12.915L6.72 9.17998L8.43 10.17L8.85 10.41L9.09 10.005L12.03 4.91998ZM20.19 8.38498L22.86 13.02C23.2144 13.665 22.9575 14.46 22.68 15.015C22.68 15.0169 22.68 15.0281 22.68 15.03C22.68 15.0319 22.665 15.0431 22.665 15.045C22.665 15.0506 22.665 15.0544 22.665 15.06C22.5731 15.2362 22.3688 15.4012 22.08 15.525C21.7781 15.6544 21.405 15.72 21.105 15.72H19.38L16.395 10.575L20.19 8.38498ZM5.79 9.41998L6.855 11.955L6.615 12.375L4.635 15.795C4.50938 15.8794 4.4325 16.0181 4.425 16.17L3.54 17.7C3.43125 17.8894 3.39 18.1369 3.315 18.36C3.08438 17.9531 2.98875 17.8012 2.73 17.34C2.07938 16.1812 1.43438 15.0431 1.17 14.64C1.01625 14.4056 0.952505 14.0925 0.960005 13.785C0.967505 13.4831 1.06313 13.1925 1.125 13.08C1.12688 13.0781 1.12313 13.0669 1.125 13.065L2.82 10.185L3.075 9.76498L3.06 9.74998L5.79 9.41998ZM21.78 16.545C21.5438 16.9462 21.4631 17.0981 21.195 17.55C20.5163 18.6919 19.8506 19.8187 19.635 20.25C19.5094 20.5012 19.275 20.7169 19.005 20.865C18.735 21.0131 18.4238 21.09 18.3 21.09L14.955 21.045H14.475V21.09L12.795 18.87L14.475 16.65V16.68H21.105C21.3206 16.68 21.5513 16.59 21.78 16.545ZM5.235 16.68H11.175V21.045H5.82C5.81438 21.045 5.81063 21.045 5.805 21.045C5.0775 21.0225 4.52625 20.4206 4.185 19.905C4.185 19.8994 4.185 19.8956 4.185 19.89C4.06688 19.725 4.01063 19.4512 4.05 19.125C4.08938 18.7987 4.215 18.4387 4.365 18.18L5.235 16.68Z" fill="white"/>
</g>
<defs>
<clipPath id="clip0_173_1219">
<rect width="24" height="24" fill="white"/>
</clipPath>
</defs>
</svg>