<svg xmlns="http://www.w3.org/2000/svg" width="24" height="24" viewBox="0 0 24 24" fill="none">
  <path d="M12 1C5.93659 1 1 5.93659 1 12C1 12.7576 1.07634 13.4986 1.22266 14.2148L3.18359 13.8145C3.06391 13.2287 3 12.6224 3 12C3 7.01741 7.01741 3 12 3C14.1482 3 16.1141 3.74952 17.6582 5H16V7H21V2H19V3.52148C17.0962 1.94942 14.6561 1 12 1ZM12 4.4668L11.2422 5.34766C10.2961 6.44817 9.26892 7.79202 8.45703 9.13477C7.64514 10.4775 7 11.7716 7 13.082C7 15.8122 9.24548 18 12 18C14.7545 18 17 15.8122 17 13.082C17 11.7716 16.3549 10.4775 15.543 9.13477C14.7311 7.79202 13.7039 6.44817 12.7578 5.34766L12 4.4668ZM12 7.68164C12.6429 8.49457 13.3156 9.31575 13.832 10.1699C14.5621 11.3774 15 12.5605 15 13.082C15 14.7459 13.7315 16 12 16C10.2685 16 9 14.7459 9 13.082C9 12.5605 9.43786 11.3774 10.168 10.1699C10.6844 9.31575 11.3571 8.49457 12 7.68164ZM22.7461 9.64258L20.793 10.0703C20.9286 10.6901 21 11.3356 21 12C21 16.9826 16.9826 21 12 21C9.8561 21 7.89843 20.2465 6.35547 19H8V17H3V22H5V20.4766C6.90396 22.0497 9.34359 23 12 23C18.0634 23 23 18.0634 23 12C23 11.1924 22.9124 10.4028 22.7461 9.64258Z" fill="white"/>
</svg>