<svg xmlns="http://www.w3.org/2000/svg" width="24" height="24" viewBox="0 0 24 24" fill="none">
  <g clip-path="url(#clip0_173_1228)">
    <path d="M12 0.921387C5.88745 0.921387 0.92157 5.88727 0.92157 11.9998C0.92157 18.1124 5.88745 23.0783 12 23.0783C12.6847 23.0783 13.3554 23.0162 14.0063 22.8973C14.1059 22.8791 14.1971 22.8298 14.2671 22.7566C14.337 22.6833 14.382 22.5898 14.3956 22.4895C14.4092 22.3892 14.3908 22.2871 14.3429 22.1978C14.295 22.1086 14.2202 22.0368 14.1291 21.9926C14.1159 21.9125 14.0825 21.8371 14.0323 21.7734C13.982 21.7097 13.9163 21.6598 13.8415 21.6283C13.7667 21.5968 13.6851 21.5849 13.6044 21.5935C13.5237 21.6021 13.4465 21.6311 13.38 21.6776C13.0829 21.871 12.7836 21.9941 12.48 22.0601V12.4798H17.2181C17.27 12.4884 17.3229 12.4884 17.3747 12.4798H22.5188C22.5881 12.4915 22.6592 12.4878 22.727 12.469C22.7948 12.4501 22.8576 12.4166 22.911 12.3708C22.9643 12.325 23.007 12.2681 23.036 12.204C23.0649 12.1398 23.0794 12.0702 23.0784 11.9998C23.0784 5.88727 18.1126 0.921387 12 0.921387ZM11.52 1.93764V6.69264C10.2896 6.66312 9.12044 6.52226 8.03907 6.30076C8.2284 5.7289 8.44346 5.1976 8.68219 4.72014C9.47562 3.13329 10.4819 2.16752 11.52 1.93764ZM12.48 1.93764C13.5181 2.16752 14.5244 3.13329 15.3178 4.72014C15.5573 5.19913 15.773 5.73241 15.9628 6.30639C14.883 6.52562 13.7118 6.66372 12.48 6.69264V1.93764ZM9.20251 2.27514C8.68151 2.82092 8.21696 3.50374 7.82344 4.29076C7.55037 4.83692 7.31088 5.43992 7.10157 6.08232C6.15732 5.83243 5.30483 5.51559 4.56844 5.14576C5.8069 3.80339 7.39713 2.79256 9.20251 2.27514ZM14.7975 2.27514C16.6013 2.79212 18.1908 3.80136 19.4288 5.14201C18.7031 5.51853 17.8508 5.83906 16.9013 6.08982C16.6914 5.44457 16.4507 4.83905 16.1766 4.29076C15.7831 3.50374 15.3185 2.82092 14.7975 2.27514ZM20.0559 5.89201C21.2543 7.47103 22.0078 9.40651 22.1063 11.5198H17.7666C17.7315 9.9051 17.525 8.38048 17.1713 7.01514C18.2498 6.72832 19.2209 6.34982 20.0559 5.89201ZM3.93844 5.89857C4.78268 6.34557 5.7558 6.7201 6.83157 7.0067C6.47652 8.37421 6.26862 9.90176 6.23344 11.5198H1.89376C1.99205 9.40958 2.74312 7.47635 3.93844 5.89857ZM7.76719 7.22795C8.93605 7.47195 10.1951 7.62291 11.52 7.65264V11.5198H7.19344C7.22927 9.97268 7.43161 8.51576 7.76719 7.22795ZM16.2347 7.23545C16.5691 8.52144 16.7708 9.97564 16.8066 11.5198H12.48V7.65264C13.8053 7.62374 15.0664 7.47705 16.2347 7.23545ZM1.89376 12.4798H6.23344C6.26855 14.0945 6.47503 15.6192 6.82876 16.9845C5.75017 17.2713 4.77916 17.6498 3.94407 18.1076C2.74569 16.5286 1.9922 14.5931 1.89376 12.4798ZM7.19344 12.4798H11.52V16.347C10.1947 16.3759 8.93359 16.5226 7.76532 16.7642C7.43087 15.4782 7.2292 14.024 7.19344 12.4798ZM20.1459 13.4417C19.7996 13.4415 19.4667 13.4564 19.1475 13.4848C15.3174 13.8255 13.4419 16.1266 13.4419 18.0092C13.4419 19.5137 14.1249 20.4053 14.8172 20.8208C15.1634 21.0285 15.5012 21.1289 15.7556 21.1798C15.7664 21.182 15.7715 21.1816 15.7819 21.1836C15.5346 21.945 15.36 22.7287 15.36 23.5198C15.3591 23.5834 15.3709 23.6466 15.3946 23.7056C15.4183 23.7646 15.4535 23.8183 15.4982 23.8636C15.5428 23.9089 15.5961 23.9449 15.6547 23.9695C15.7134 23.994 15.7764 24.0067 15.84 24.0067C15.9036 24.0067 15.9666 23.994 16.0253 23.9695C16.084 23.9449 16.1372 23.9089 16.1818 23.8636C16.2265 23.8183 16.2617 23.7646 16.2854 23.7056C16.3092 23.6466 16.3209 23.5834 16.32 23.5198C16.32 22.991 16.4748 22.451 16.6153 21.9139C17.0043 22.176 17.4849 22.3763 18.0216 22.4989C19.1026 22.7457 20.4485 22.5823 21.5597 21.5623C22.7615 20.4592 22.961 19.0788 23.0644 17.8508C23.1678 16.6227 23.2079 15.5355 23.8988 14.6473C23.948 14.5839 23.9805 14.5092 23.9934 14.43C24.0063 14.3508 23.9991 14.2696 23.9726 14.1939C23.946 14.1182 23.9009 14.0503 23.8413 13.9965C23.7817 13.9428 23.7096 13.9048 23.6316 13.8861C22.3461 13.5784 21.1849 13.4424 20.1459 13.4417ZM20.0288 14.4045C20.8405 14.4086 21.7588 14.514 22.7578 14.7111C22.2489 15.7139 22.1903 16.7939 22.1081 17.7701C22.0079 18.9613 21.8643 19.9795 20.91 20.8554C20.0388 21.6551 19.0718 21.7543 18.2353 21.5633C17.6393 21.4272 17.2193 21.1219 16.9453 20.8611C17.1877 20.2767 17.4509 19.6922 17.8031 19.1642C18.684 17.8439 19.8461 16.7731 20.8547 16.2692C20.9111 16.241 20.9614 16.202 21.0027 16.1544C21.044 16.1067 21.0755 16.0514 21.0955 15.9916C21.1154 15.9318 21.1234 15.8687 21.1189 15.8058C21.1145 15.7429 21.0977 15.6815 21.0695 15.6251C21.0413 15.5687 21.0022 15.5184 20.9546 15.4771C20.907 15.4358 20.8517 15.4043 20.7918 15.3844C20.732 15.3644 20.6689 15.3565 20.606 15.3609C20.5431 15.3654 20.4817 15.3822 20.4253 15.4104C19.2029 16.0211 17.9658 17.1906 17.0044 18.6317C16.6674 19.1369 16.4258 19.7076 16.1747 20.2695C16.1663 20.269 16.1617 20.2696 16.1503 20.2686C16.1032 20.2645 16.0311 20.256 15.9441 20.2386C15.77 20.2037 15.5364 20.1327 15.3113 19.9976C14.861 19.7274 14.4019 19.247 14.4019 18.0092C14.4019 16.8066 15.8044 14.7366 19.2534 14.4345C19.4994 14.413 19.7582 14.4032 20.0288 14.4045ZM11.52 17.307V22.062C10.4819 21.8321 9.47562 20.8664 8.68219 19.2795C8.4427 18.8005 8.22696 18.2672 8.03719 17.6933C9.11704 17.474 10.2883 17.3359 11.52 17.307ZM7.09876 17.9098C7.30861 18.5551 7.5493 19.1606 7.82344 19.7089C8.21696 20.4959 8.68151 21.1787 9.20251 21.7245C7.39866 21.2075 5.80926 20.1983 4.57126 18.8576C5.29688 18.4811 6.14917 18.1606 7.09876 17.9098Z" fill="white"/>
  </g>
  <defs>
    <clipPath id="clip0_173_1228">
      <rect width="24" height="24" fill="white"/>
    </clipPath>
  </defs>
</svg>