<svg xmlns="http://www.w3.org/2000/svg" width="62" height="41" viewBox="0 0 62 41" fill="none">
  <g opacity="0.8">
    <path d="M15.2749 27.8282C13.9898 26.5429 17.9724 22.4411 24.3268 18.8579C30.6812 15.2748 44.278 9.60849 45.3782 11.0569C46.4784 12.5054 34.8228 20.1555 28.6872 23.7151C22.5517 27.2747 16.5668 29.1414 15.2749 27.8282Z" fill="#F1A640"/>
    <path d="M1.75297 20.0898C0.904425 18.9304 5.94016 15.2204 13.1405 12.0164C20.3408 8.81252 35.2024 3.99181 35.8575 5.2891C36.5127 6.58638 22.8878 13.2307 15.873 16.4199C8.8581 19.6092 2.57276 21.2864 1.64585 20.1158" fill="#F1A640"/>
    <path d="M24.8157 34.831C24.2178 33.9393 29.4703 30.4005 36.6916 27.1788C43.9128 23.9571 58.7564 18.8834 59.2055 19.8902C59.6545 20.897 45.7021 27.2945 38.6857 30.5387C31.6694 33.783 25.4136 35.7227 24.7815 34.843" fill="#F1A640"/>
  </g>
</svg>