<svg xmlns="http://www.w3.org/2000/svg" width="121" height="125" viewBox="0 0 121 125" fill="none">
  <g opacity="0.8" clip-path="url(#clip0_105_246)">
    <path d="M119.245 79.2708C117.35 83.6956 113.536 85.2325 109.838 86.1921C104.676 87.4587 99.3227 88.1863 94.0858 88.3366C69.9436 88.3971 49.3597 79.2615 32.216 62.5078C27.8724 58.2327 24.0691 53.2653 19.6117 48.0665C16.7524 53.7991 17.7801 60.6121 15.1513 66.6912C13.0369 64.7654 13.1949 62.4948 13.2752 60.609C13.6352 52.8733 14.1108 45.0607 14.7789 37.2867C15.132 33.5537 16.4818 32.323 19.9459 33.0182C27.1824 34.3702 33.2986 37.7997 38.1021 43.2682C38.2557 43.4992 38.1392 44.0765 38.0607 44.9616C32.243 46.9974 29.175 39.8752 23.36 40.41C26.8093 49.6109 33.2664 56.3121 40.2637 62.3209C47.6071 68.5993 55.4139 74.0699 64.4178 77.5784C73.2292 81.0483 82.3522 82.4785 91.8231 83.1778C101.255 84.0694 110.268 82.5746 119.245 79.2708Z" fill="#F1A640"/>
  </g>
  <defs>
    <clipPath id="clip0_105_246">
      <rect width="79.9023" height="96.9307" fill="white" transform="translate(120.206 80.7163) rotate(146.379)"/>
    </clipPath>
  </defs>
</svg>