<svg width="48" height="48" viewBox="0 0 48 48" fill="none" xmlns="http://www.w3.org/2000/svg">
<path d="M6.58579 18.5858C6 19.1716 6 20.1144 6 22V34C6 35.8856 6 36.8284 6.58579 37.4142C7.17157 38 8.11438 38 10 38C11.8856 38 12.8284 38 13.4142 37.4142C14 36.8284 14 35.8856 14 34V22C14 20.1144 14 19.1716 13.4142 18.5858C12.8284 18 11.8856 18 10 18C8.11438 18 7.17157 18 6.58579 18.5858Z" fill="url(#paint0_linear_173_1106)"/>
<path d="M34.5858 4.58579C34 5.17157 34 6.11438 34 8V34C34 35.8856 34 36.8284 34.5858 37.4142C35.1716 38 36.1144 38 38 38C39.8856 38 40.8284 38 41.4142 37.4142C42 36.8284 42 35.8856 42 34V8C42 6.11438 42 5.17157 41.4142 4.58579C40.8284 4 39.8856 4 38 4C36.1144 4 35.1716 4 34.5858 4.58579Z" fill="#F1A640" fill-opacity="0.18" stroke="#F1A640" stroke-width="1.5"/>
<path d="M20 14C20 12.1144 20 11.1716 20.5858 10.5858C21.1716 10 22.1144 10 24 10C25.8856 10 26.8284 10 27.4142 10.5858C28 11.1716 28 12.1144 28 14V34C28 35.8856 28 36.8284 27.4142 37.4142C26.8284 38 25.8856 38 24 38C22.1144 38 21.1716 38 20.5858 37.4142C20 36.8284 20 35.8856 20 34V14Z" fill="#F1A640" fill-opacity="0.18" stroke="#F1A640" stroke-width="1.5"/>
<path d="M6 42.5C5.17157 42.5 4.5 43.1716 4.5 44C4.5 44.8284 5.17157 45.5 6 45.5H42C42.8284 45.5 43.5 44.8284 43.5 44C43.5 43.1716 42.8284 42.5 42 42.5H6Z" fill="#F1A640"/>
<defs>
<linearGradient id="paint0_linear_173_1106" x1="6" y1="28" x2="14" y2="28" gradientUnits="userSpaceOnUse">
<stop stop-color="#E9442F"/>
<stop offset="1" stop-color="#F29531"/>
</linearGradient>
</defs>
</svg>
