<svg width="48" height="48" viewBox="0 0 48 48" fill="none" xmlns="http://www.w3.org/2000/svg">
<path fill-rule="evenodd" clip-rule="evenodd" d="M35 5.5C35.8284 5.5 36.5 6.17157 36.5 7V11.5H41C41.8284 11.5 42.5 12.1716 42.5 13C42.5 13.8284 41.8284 14.5 41 14.5H36.5V19C36.5 19.8284 35.8284 20.5 35 20.5C34.1716 20.5 33.5 19.8284 33.5 19V14.5H29C28.1716 14.5 27.5 13.8284 27.5 13C27.5 12.1716 28.1716 11.5 29 11.5H33.5V7C33.5 6.17157 34.1716 5.5 35 5.5Z" fill="#F1A640" fill-opacity="0.18" stroke="#F1A640" stroke-width="1.5" stroke-linecap="round"/>
<path d="M4 13C4 8.75736 4 6.63604 5.31802 5.31802C6.63604 4 8.75736 4 13 4C17.2426 4 19.364 4 20.682 5.31802C22 6.63604 22 8.75736 22 13C22 17.2426 22 19.364 20.682 20.682C19.364 22 17.2426 22 13 22C8.75736 22 6.63604 22 5.31802 20.682C4 19.364 4 17.2426 4 13Z" fill="#F1A640" fill-opacity="0.18" stroke="#F1A640" stroke-width="1.5"/>
<path d="M26 35C26 30.7574 26 28.636 27.318 27.318C28.636 26 30.7574 26 35 26C39.2426 26 41.364 26 42.682 27.318C44 28.636 44 30.7574 44 35C44 39.2426 44 41.364 42.682 42.682C41.364 44 39.2426 44 35 44C30.7574 44 28.636 44 27.318 42.682C26 41.364 26 39.2426 26 35Z" fill="#F1A640" fill-opacity="0.18" stroke="#F1A640" stroke-width="1.5"/>
<path d="M4 35C4 30.7574 4 28.636 5.31802 27.318C6.63604 26 8.75736 26 13 26C17.2426 26 19.364 26 20.682 27.318C22 28.636 22 30.7574 22 35C22 39.2426 22 41.364 20.682 42.682C19.364 44 17.2426 44 13 44C8.75736 44 6.63604 44 5.31802 42.682C4 41.364 4 39.2426 4 35Z" fill="url(#paint0_linear_173_1111)"/>
<defs>
<linearGradient id="paint0_linear_173_1111" x1="4" y1="35" x2="22" y2="35" gradientUnits="userSpaceOnUse">
<stop stop-color="#E9442F"/>
<stop offset="1" stop-color="#F29531"/>
</linearGradient>
</defs>
</svg>
