<svg width="48" height="49" viewBox="0 0 48 49" fill="none" xmlns="http://www.w3.org/2000/svg">
<path d="M4 24.4814C4 15.0534 4 10.3393 6.92893 7.41038C9.85786 4.48145 14.5719 4.48145 24 4.48145C33.4281 4.48145 38.1421 4.48145 41.0711 7.41038C44 10.3393 44 15.0534 44 24.4814C44 33.9095 44 38.6236 41.0711 41.5525C38.1421 44.4814 33.4281 44.4814 24 44.4814C14.5719 44.4814 9.85786 44.4814 6.92893 41.5525C4 38.6236 4 33.9095 4 24.4814Z" fill="#F1A640" fill-opacity="0.18" stroke="#F1A640" stroke-width="1.5"/>
<path d="M26.9761 13.3733C27.7763 13.5877 28.2512 14.4102 28.0368 15.2104L22.8604 34.5289C22.646 35.3291 21.8235 35.804 21.0233 35.5896C20.2231 35.3751 19.7482 34.5526 19.9626 33.7524L25.139 14.4339C25.3534 13.6337 26.1759 13.1588 26.9761 13.3733Z" fill="url(#paint0_linear_173_1130)"/>
<path d="M29.9393 17.4208C30.5251 16.835 31.4749 16.835 32.0607 17.4208L32.4773 17.8375C33.748 19.108 34.8076 20.1676 35.5357 21.1218C36.3041 22.129 36.8431 23.1932 36.8431 24.4815C36.8431 25.7697 36.3041 26.8339 35.5357 27.8411C34.8076 28.7953 33.7481 29.8548 32.4774 31.1254L32.0607 31.5421C31.4749 32.1279 30.5251 32.1279 29.9393 31.5421C29.3536 30.9563 29.3536 30.0066 29.9393 29.4208L30.2825 29.0776C31.6458 27.7143 32.5593 26.7963 33.1506 26.0213C33.7155 25.281 33.8431 24.85 33.8431 24.4815C33.8431 24.1129 33.7155 23.6819 33.1506 22.9416C32.5593 22.1666 31.6458 21.2486 30.2825 19.8853L29.9393 19.5421C29.3536 18.9563 29.3536 18.0066 29.9393 17.4208Z" fill="url(#paint1_linear_173_1130)"/>
<path d="M15.9397 17.4208C16.5255 16.835 17.4752 16.835 18.061 17.4208C18.6468 18.0066 18.6468 18.9563 18.061 19.5421L17.7179 19.8853C16.3546 21.2486 15.441 22.1666 14.8498 22.9416C14.2849 23.6819 14.1572 24.1129 14.1572 24.4815C14.1572 24.85 14.2849 25.281 14.8498 26.0213C15.441 26.7963 16.3546 27.7143 17.7179 29.0776L18.061 29.4208C18.6468 30.0066 18.6468 30.9563 18.061 31.5421C17.4752 32.1279 16.5255 32.1279 15.9397 31.5421L15.523 31.1254C14.2523 29.8548 13.1928 28.7953 12.4647 27.8411C11.6962 26.8339 11.1572 25.7697 11.1572 24.4815C11.1572 23.1932 11.6962 22.129 12.4647 21.1218C13.1928 20.1676 14.2523 19.1081 15.523 17.8375L15.9397 17.4208Z" fill="url(#paint2_linear_173_1130)"/>
<defs>
<linearGradient id="paint0_linear_173_1130" x1="11.1572" y1="24.4814" x2="36.8431" y2="24.4814" gradientUnits="userSpaceOnUse">
<stop stop-color="#E9442F"/>
<stop offset="1" stop-color="#F29531"/>
</linearGradient>
<linearGradient id="paint1_linear_173_1130" x1="11.1572" y1="24.4814" x2="36.8431" y2="24.4814" gradientUnits="userSpaceOnUse">
<stop stop-color="#E9442F"/>
<stop offset="1" stop-color="#F29531"/>
</linearGradient>
<linearGradient id="paint2_linear_173_1130" x1="11.1572" y1="24.4814" x2="36.8431" y2="24.4814" gradientUnits="userSpaceOnUse">
<stop stop-color="#E9442F"/>
<stop offset="1" stop-color="#F29531"/>
</linearGradient>
</defs>
</svg>
