<svg width="48" height="48" viewBox="0 0 48 48" fill="none" xmlns="http://www.w3.org/2000/svg">
<path d="M28 8H20C12.4575 8 8.68629 8 6.34315 10.3431C4 12.6863 4 16.4575 4 24C4 31.5425 4 35.3137 6.34315 37.6569C8.68629 40 12.4575 40 20 40H28C35.5425 40 39.3137 40 41.6569 37.6569C44 35.3137 44 31.5425 44 24C44 16.4575 44 12.6863 41.6569 10.3431C39.3137 8 35.5425 8 28 8Z" fill="#F1A640" fill-opacity="0.18"/>
<path d="M20 8.75H28V7.25H20V8.75ZM28 39.25H20V40.75H28V39.25ZM20 39.25C16.2076 39.25 13.4387 39.2484 11.3218 38.9638C9.22642 38.6821 7.88247 38.1355 6.87348 37.1265L5.81282 38.1872C7.14697 39.5213 8.86021 40.1463 11.1219 40.4504C13.362 40.7516 16.25 40.75 20 40.75V39.25ZM3.25 24C3.25 27.75 3.24841 30.638 3.54958 32.8781C3.85366 35.1398 4.47867 36.853 5.81282 38.1872L6.87348 37.1265C5.86448 36.1175 5.31792 34.7736 5.03621 32.6782C4.75159 30.5613 4.75 27.7924 4.75 24H3.25ZM43.25 24C43.25 27.7924 43.2484 30.5613 42.9638 32.6782C42.6821 34.7736 42.1355 36.1175 41.1265 37.1265L42.1872 38.1872C43.5213 36.853 44.1463 35.1398 44.4504 32.8781C44.7516 30.638 44.75 27.75 44.75 24H43.25ZM28 40.75C31.75 40.75 34.638 40.7516 36.8781 40.4504C39.1398 40.1463 40.853 39.5213 42.1872 38.1872L41.1265 37.1265C40.1175 38.1355 38.7736 38.6821 36.6782 38.9638C34.5613 39.2484 31.7924 39.25 28 39.25V40.75ZM28 8.75C31.7924 8.75 34.5613 8.75159 36.6782 9.03621C38.7736 9.31792 40.1175 9.86448 41.1265 10.8735L42.1872 9.81282C40.853 8.47867 39.1398 7.85366 36.8781 7.54958C34.638 7.24841 31.75 7.25 28 7.25V8.75ZM44.75 24C44.75 20.25 44.7516 17.362 44.4504 15.1219C44.1463 12.8602 43.5213 11.147 42.1872 9.81282L41.1265 10.8735C42.1355 11.8825 42.6821 13.2264 42.9638 15.3218C43.2484 17.4387 43.25 20.2076 43.25 24H44.75ZM20 7.25C16.25 7.25 13.362 7.24841 11.1219 7.54958C8.86021 7.85366 7.14697 8.47867 5.81282 9.81282L6.87348 10.8735C7.88247 9.86448 9.22642 9.31792 11.3218 9.03621C13.4387 8.75159 16.2076 8.75 20 8.75V7.25ZM4.75 24C4.75 20.2076 4.75159 17.4387 5.03621 15.3218C5.31792 13.2264 5.86448 11.8825 6.87348 10.8735L5.81282 9.81282C4.47867 11.147 3.85366 12.8602 3.54958 15.1219C3.24841 17.362 3.25 20.25 3.25 24H4.75Z" fill="#F1A640"/>
<path d="M26.5 18C26.5 17.1716 27.1716 16.5 28 16.5H38C38.8284 16.5 39.5 17.1716 39.5 18C39.5 18.8284 38.8284 19.5 38 19.5H28C27.1716 19.5 26.5 18.8284 26.5 18Z" fill="url(#paint0_linear_173_1140)"/>
<path d="M28.5 24C28.5 23.1716 29.1716 22.5 30 22.5H38C38.8284 22.5 39.5 23.1716 39.5 24C39.5 24.8284 38.8284 25.5 38 25.5H30C29.1716 25.5 28.5 24.8284 28.5 24Z" fill="url(#paint1_linear_173_1140)"/>
<path d="M30.5 30C30.5 29.1716 31.1716 28.5 32 28.5H38C38.8284 28.5 39.5 29.1716 39.5 30C39.5 30.8284 38.8284 31.5 38 31.5H32C31.1716 31.5 30.5 30.8284 30.5 30Z" fill="url(#paint2_linear_173_1140)"/>
<path d="M18 22C20.2091 22 22 20.2091 22 18C22 15.7909 20.2091 14 18 14C15.7909 14 14 15.7909 14 18C14 20.2091 15.7909 22 18 22Z" fill="url(#paint3_linear_173_1140)"/>
<path d="M18 34C26 34 26 32.2091 26 30C26 27.7909 22.4183 26 18 26C13.5817 26 10 27.7909 10 30C10 32.2091 10 34 18 34Z" fill="url(#paint4_linear_173_1140)"/>
<defs>
<linearGradient id="paint0_linear_173_1140" x1="10" y1="24" x2="39.5" y2="24" gradientUnits="userSpaceOnUse">
<stop stop-color="#E9442F"/>
<stop offset="1" stop-color="#F29531"/>
</linearGradient>
<linearGradient id="paint1_linear_173_1140" x1="10" y1="24" x2="39.5" y2="24" gradientUnits="userSpaceOnUse">
<stop stop-color="#E9442F"/>
<stop offset="1" stop-color="#F29531"/>
</linearGradient>
<linearGradient id="paint2_linear_173_1140" x1="10" y1="24" x2="39.5" y2="24" gradientUnits="userSpaceOnUse">
<stop stop-color="#E9442F"/>
<stop offset="1" stop-color="#F29531"/>
</linearGradient>
<linearGradient id="paint3_linear_173_1140" x1="10" y1="24" x2="39.5" y2="24" gradientUnits="userSpaceOnUse">
<stop stop-color="#E9442F"/>
<stop offset="1" stop-color="#F29531"/>
</linearGradient>
<linearGradient id="paint4_linear_173_1140" x1="10" y1="24" x2="39.5" y2="24" gradientUnits="userSpaceOnUse">
<stop stop-color="#E9442F"/>
<stop offset="1" stop-color="#F29531"/>
</linearGradient>
</defs>
</svg>
