<svg width="48" height="48" viewBox="0 0 48 48" fill="none" xmlns="http://www.w3.org/2000/svg">
<path d="M24.1068 4C28.4014 3.99998 31.767 3.99996 34.3931 4.3574C37.0809 4.72325 39.2019 5.48673 40.8666 7.17214C42.5314 8.85755 43.2855 11.0048 43.6469 13.7261C43.9999 16.3847 43.9999 19.7921 43.9999 24.14L43.9999 34.7349C44.0005 36.3687 44.0009 37.4892 43.7137 38.4728C43.1521 40.3964 41.8092 41.9875 40.0201 42.8491C39.1051 43.2897 38.0119 43.4641 36.4178 43.7183L36.1578 43.7598C35.5909 43.8504 35.1065 43.9279 34.7045 43.9678C34.2864 44.0094 33.8599 44.0222 33.4237 43.9352C31.9884 43.649 30.8048 42.6251 30.3018 41.2345C30.1489 40.8118 30.0948 40.3833 30.0702 39.9586C30.0465 39.5505 30.0465 39.0541 30.0465 38.4731L30.0463 30.1283C30.0453 29.2773 30.0444 28.5451 30.2391 27.9179C30.6846 26.4832 31.8477 25.395 33.2954 25.0584C33.9283 24.9112 34.6492 24.9697 35.4871 25.0377L35.6735 25.0528L35.8932 25.0703C37.4606 25.195 38.533 25.2804 39.4433 25.6212C40.083 25.8608 40.6764 26.1906 41.2092 26.5952V24.2481C41.2092 19.7686 41.2062 16.5511 40.8811 14.1025C40.5613 11.6946 39.9531 10.2429 38.8933 9.16994C37.8335 8.09697 36.3996 7.48125 34.0212 7.15752C31.6026 6.82831 28.4246 6.82531 24 6.82531C19.5754 6.82531 16.3974 6.82831 13.9788 7.15752C11.6004 7.48125 10.1665 8.09697 9.10668 9.16994C8.04686 10.2429 7.43869 11.6946 7.11892 14.1025C6.79375 16.5511 6.79079 19.7686 6.79079 24.2481V26.5952C7.32362 26.1906 7.91696 25.8608 8.55668 25.6212C9.46701 25.2804 10.5394 25.195 12.1068 25.0703L12.3265 25.0528L12.5129 25.0377C13.3508 24.9697 14.0717 24.9112 14.7046 25.0584C16.1523 25.395 17.3154 26.4832 17.7609 27.9179C17.9556 28.5451 17.9547 29.2773 17.9537 30.1283L17.9535 38.473C17.9535 39.054 17.9535 39.5505 17.9298 39.9586C17.9052 40.3833 17.8511 40.8118 17.6982 41.2345C17.1952 42.6251 16.0116 43.649 14.5763 43.9352C14.1401 44.0222 13.7136 44.0094 13.2955 43.9678C12.8935 43.9279 12.4091 43.8504 11.8421 43.7598L11.5822 43.7183C9.98808 43.4641 8.89485 43.2897 7.97992 42.8491C6.19078 41.9875 4.84786 40.3964 4.28626 38.4728C3.99907 37.4892 3.99947 36.3687 4.00005 34.7349L4.0001 24.14C4.00008 19.792 4.00006 16.3847 4.35312 13.7261C4.71449 11.0048 5.46861 8.85755 7.13336 7.17214C8.79812 5.48673 10.9191 4.72325 13.6069 4.3574C16.233 3.99996 19.5986 3.99998 23.8932 4H24.1068Z" fill="#F1A640" fill-opacity="0.18" stroke="#F1A640" stroke-width="1.5" stroke-linecap="round"/>
<path fill-rule="evenodd" clip-rule="evenodd" d="M24 11.5C24.8284 11.5 25.5 12.1716 25.5 13V23C25.5 23.8284 24.8284 24.5 24 24.5C23.1716 24.5 22.5 23.8284 22.5 23V13C22.5 12.1716 23.1716 11.5 24 11.5Z" fill="url(#paint0_linear_173_1143)"/>
<path fill-rule="evenodd" clip-rule="evenodd" d="M30 14.5C30.8284 14.5 31.5 15.1716 31.5 16L31.5 20C31.5 20.8284 30.8284 21.5 30 21.5C29.1716 21.5 28.5 20.8284 28.5 20L28.5 16C28.5 15.1716 29.1716 14.5 30 14.5Z" fill="url(#paint1_linear_173_1143)"/>
<path fill-rule="evenodd" clip-rule="evenodd" d="M18 14.5C18.8284 14.5 19.5 15.1716 19.5 16V20C19.5 20.8284 18.8284 21.5 18 21.5C17.1716 21.5 16.5 20.8284 16.5 20V16C16.5 15.1716 17.1716 14.5 18 14.5Z" fill="url(#paint2_linear_173_1143)"/>
<defs>
<linearGradient id="paint0_linear_173_1143" x1="16.5" y1="18" x2="31.5" y2="18" gradientUnits="userSpaceOnUse">
<stop stop-color="#E9442F"/>
<stop offset="1" stop-color="#F29531"/>
</linearGradient>
<linearGradient id="paint1_linear_173_1143" x1="16.5" y1="18" x2="31.5" y2="18" gradientUnits="userSpaceOnUse">
<stop stop-color="#E9442F"/>
<stop offset="1" stop-color="#F29531"/>
</linearGradient>
<linearGradient id="paint2_linear_173_1143" x1="16.5" y1="18" x2="31.5" y2="18" gradientUnits="userSpaceOnUse">
<stop stop-color="#E9442F"/>
<stop offset="1" stop-color="#F29531"/>
</linearGradient>
</defs>
</svg>
