<svg width="48" height="48" viewBox="0 0 48 48" fill="none" xmlns="http://www.w3.org/2000/svg">
<path d="M6.75503 10.1648C6 11.2406 6 14.4381 6 20.8333V23.9827C6 35.2589 14.4779 40.731 19.7971 43.0545C21.24 43.6848 21.9615 44 24 44C26.0385 44 26.76 43.6849 28.2029 43.0546C33.5221 40.731 42 35.2589 42 23.9827V20.8333C42 14.4381 42 11.2406 41.245 10.1648C40.4899 9.08908 37.4834 8.05992 31.4702 6.00159L30.3246 5.60943C27.19 4.53648 25.6228 4 24 4C22.3772 4 20.81 4.53648 17.6754 5.60943L16.5298 6.00158C10.5166 8.05991 7.51006 9.08908 6.75503 10.1648Z" fill="#F1A640" fill-opacity="0.18" stroke="#F1A640" stroke-width="1.5"/>
<path fill-rule="evenodd" clip-rule="evenodd" d="M13.3754 19.5991C12.7975 20.9944 12.5 22.4898 12.5 24C12.5 25.5102 12.7975 27.0056 13.3754 28.4009C13.9533 29.7961 14.8004 31.0639 15.8683 32.1317C16.9361 33.1996 18.2039 34.0467 19.5991 34.6246C20.9944 35.2025 22.4898 35.5 24 35.5C25.5102 35.5 27.0056 35.2025 28.4009 34.6246C29.7961 34.0467 31.0639 33.1996 32.1317 32.1317C33.1996 31.0639 34.0467 29.7961 34.6246 28.4009C35.2025 27.0056 35.5 25.5102 35.5 24C35.5 22.4898 35.2025 20.9944 34.6246 19.5991C34.0467 18.2039 33.1996 16.9361 32.1317 15.8683C31.0639 14.8004 29.7961 13.9533 28.4009 13.3754C27.0056 12.7975 25.5102 12.5 24 12.5C22.4898 12.5 20.9944 12.7975 19.5991 13.3754C18.2039 13.9533 16.9361 14.8004 15.8683 15.8683C14.8004 16.9361 13.9533 18.2039 13.3754 19.5991ZM23.8875 15.5352C23.957 15.5007 23.9911 15.5 24 15.5C24.0089 15.5 24.043 15.5007 24.1125 15.5352C24.1871 15.5724 24.3036 15.6498 24.4517 15.8032C24.7571 16.1195 25.1078 16.6662 25.4357 17.486C25.759 18.2943 26.0285 19.2886 26.2157 20.4184C26.3262 21.0853 26.4055 21.7842 26.4518 22.5H21.5482C21.5945 21.7842 21.6738 21.0853 21.7843 20.4184C21.9715 19.2886 22.241 18.2943 22.5643 17.486C22.8922 16.6662 23.2429 16.1195 23.5483 15.8032C23.6964 15.6498 23.8129 15.5724 23.8875 15.5352ZM18.8247 19.928C18.6871 20.758 18.5928 21.6219 18.5427 22.5H15.6334C15.7409 21.9004 15.9128 21.3127 16.147 20.7472C16.5742 19.7159 17.2003 18.7789 17.9896 17.9896C18.4898 17.4893 19.0494 17.0546 19.6548 16.6946C19.2958 17.6662 19.0178 18.7622 18.8247 19.928ZM15.6334 25.5H18.5427C18.5928 26.3781 18.6871 27.242 18.8247 28.072C19.0178 29.2377 19.2958 30.3338 19.6548 31.3054C19.0494 30.9454 18.4898 30.5107 17.9896 30.0104C17.2003 29.2211 16.5742 28.2841 16.147 27.2528C15.9128 26.6873 15.7409 26.0996 15.6334 25.5ZM32.3666 22.5C32.2591 21.9004 32.0872 21.3127 31.853 20.7472C31.4258 19.7159 30.7997 18.7789 30.0104 17.9896C29.5102 17.4893 28.9506 17.0546 28.3452 16.6946C28.7042 17.6662 28.9822 18.7623 29.1753 19.928C29.3129 20.758 29.4072 21.6219 29.4573 22.5H32.3666ZM29.4573 25.5H32.3666C32.2591 26.0996 32.0872 26.6873 31.853 27.2528C31.4258 28.2841 30.7997 29.2211 30.0104 30.0104C29.5102 30.5107 28.9506 30.9454 28.3452 31.3054C28.7042 30.3338 28.9822 29.2377 29.1753 28.072C29.3129 27.242 29.4072 26.3781 29.4573 25.5ZM26.4518 25.5C26.4055 26.2158 26.3262 26.9147 26.2157 27.5816C26.0285 28.7114 25.759 29.7057 25.4357 30.514C25.1078 31.3338 24.7571 31.8805 24.4517 32.1968C24.3036 32.3502 24.1871 32.4276 24.1125 32.4648C24.043 32.4993 24.0089 32.5 24 32.5C23.9911 32.5 23.957 32.4993 23.8875 32.4648C23.8129 32.4276 23.6964 32.3502 23.5483 32.1968C23.2429 31.8805 22.8922 31.3338 22.5643 30.514C22.241 29.7057 21.9715 28.7114 21.7843 27.5816C21.6738 26.9147 21.5945 26.2158 21.5482 25.5H26.4518Z" fill="url(#paint0_linear_173_1149)"/>
<defs>
<linearGradient id="paint0_linear_173_1149" x1="12.5" y1="24" x2="35.5" y2="24" gradientUnits="userSpaceOnUse">
<stop stop-color="#E9442F"/>
<stop offset="1" stop-color="#F29531"/>
</linearGradient>
</defs>
</svg>
