<svg xmlns="http://www.w3.org/2000/svg" width="40" height="41" viewBox="0 0 40 41" fill="none">
<path d="M25.7422 6.14844C25.2734 5.625 24.7734 5.11719 24.25 4.64063C24.1641 4.5625 24.0781 4.49219 24 4.41406C24.7031 5.375 25.3359 6.39063 25.6406 7.55469C25.8828 8.49219 25.9766 9.47656 25.9375 10.4531C26.3516 9.92188 26.6719 9.35156 26.9219 8.6875C27.0156 8.44531 27.2187 8.39063 27.4062 8.44531C26.9531 7.63281 26.3906 6.86719 25.7422 6.14844ZM28.5156 11.4688C28.3516 10.6406 28.0938 9.85938 27.75 9.11719C27.3672 10.125 26.8047 10.9688 26.0469 11.7344C25.9687 11.8125 25.875 11.8594 25.7891 11.875C25.7031 12.375 25.5859 12.875 25.4375 13.3516C25.3672 13.5703 25.2969 13.7891 25.2266 14.0078C25.3594 13.8984 25.4922 13.8047 25.625 13.7031C25.9531 13.4531 26.3125 13.2109 26.6094 12.9219C26.7188 12.8203 26.8516 12.7031 26.9141 12.5703C26.9609 12.4766 26.9687 12.5859 26.9062 12.4688C26.6406 11.9375 27.5156 11.6328 27.7812 12.1641C28.1484 12.9063 27.2812 13.6016 26.7812 13.9922C26.4141 14.2813 26.0234 14.5547 25.6641 14.8672C25.5 15.0078 25.1562 15.3438 25.1562 15.4453C25.1406 15.7969 24.8047 15.9688 24.5469 15.9219C24.5234 15.9844 24.4922 16.0547 24.4688 16.1172C24.2578 16.6406 24.0156 17.1641 23.7188 17.6484C24.8672 17.3203 25.9609 16.4844 26.5547 15.5234C26.8672 15.0234 27.7031 15.4297 27.3828 15.9375C26.4609 17.4141 24.6719 18.6563 22.8906 18.7188C22.1484 19.4688 21.2188 19.9375 20.2422 20.3359C21.5391 20.9062 23.0234 20.9297 24.3672 20.3984C26.0547 19.7344 27.4844 18.5313 28.2188 16.8438C28.9609 15.1016 28.8672 13.2891 28.5156 11.4688Z" fill="#3AB37C"/>
<path d="M23.5 8.61719C24.1016 8.98438 24.6484 9.55469 25.0234 10.2188C25.0469 9.34375 24.9609 8.46094 24.6953 7.63281C24.3828 6.64063 23.8437 5.77344 23.2422 4.94531C23.2578 5.13281 23.2578 5.32813 23.2422 5.52344C23.1719 6.40625 22.7812 7.20312 22.3828 7.97656C21.5547 9.625 20.1406 10.6016 18.7031 11.6641C17.3516 12.6562 15.8125 13.8125 16.1719 15.6953C16.3203 16.4922 16.9062 17.2188 17.4375 17.8047C17.9922 18.4141 18.5937 18.9766 19.1719 19.5547C19.2187 19.6016 19.2578 19.6562 19.2812 19.7188C20.3594 19.3203 21.4375 18.875 22.2422 18.0547C22.2187 18.0156 22.2109 17.9688 22.1953 17.9141C21.9219 16.3047 20.8906 14.8672 19.8203 13.6719C19.4297 13.2344 20.0312 12.5312 20.4297 12.9766C21.5078 14.1797 22.4922 15.5391 22.9453 17.0938C23.2578 16.5781 23.5 16.0156 23.7109 15.4531C23.7344 15.3906 23.7578 15.3281 23.7812 15.2656C23.4375 13.875 22.3125 12.8281 21.5078 11.6875C21.1641 11.2031 21.9297 10.6797 22.2734 11.1719C22.9453 12.1172 23.7344 12.9766 24.25 13.9844C24.3594 13.6719 24.4609 13.3516 24.5547 13.0312C24.625 12.7891 24.6875 12.5469 24.7422 12.2969C24.6562 12.2266 24.5937 12.125 24.5937 11.9766C24.5703 11.0156 23.8984 9.94531 23.0781 9.44531C22.5781 9.14062 22.9844 8.30469 23.5 8.61719Z" fill="#3AB37C"/>
<path d="M31.4063 23.375C30.6484 23.6719 30.1406 24.3125 29.5859 24.8906C29.1016 25.4062 28.6016 25.9062 28.0547 26.3594C27.8672 26.5156 27.6719 26.6641 27.4922 26.8281C27.4609 26.8516 27.4297 26.8828 27.4062 26.9062C27.4062 27.1328 27.2422 27.3828 26.9766 27.4219C26.9922 27.4922 27 27.5703 27 27.6484C27.0625 28.9453 26.1328 30.125 24.9922 30.8828C26.9688 30.1406 28.1719 28.2734 29.4297 26.6797C29.9688 26 30.5313 25.3359 31.1875 24.7578C31.7813 24.2422 32.5156 23.7031 33.3047 23.5469C32.7344 23.1953 32.0391 23.125 31.4063 23.375ZM28.6875 23.7812C28.1641 24.1953 27.6641 24.6172 27.1016 24.9688C26.5625 25.3047 26.0156 25.6328 25.4688 25.9609C25.8672 26.0547 26.2344 26.2422 26.5078 26.5156C26.6641 26.2891 26.8984 26.1094 27.1016 25.9375C27.8438 25.3203 28.5313 24.6562 29.2109 23.9375C29.5703 23.5625 29.9453 23.1953 30.3594 22.8984C29.75 22.9609 29.1406 23.4219 28.6875 23.7812Z" fill="#FCBF95"/>
<path d="M34.3828 24.8202C34.125 24.0312 33.0547 24.5624 32.5938 24.8593C29.6484 26.7265 28.5938 30.703 25.0781 31.828C24.6406 31.9687 24.3594 31.4843 24.5156 31.164C24.0625 31.4062 23.6016 31.5858 23.1641 31.6796C21.1328 32.1171 19.0703 31.4921 17.5469 30.0937C17.1094 29.6874 17.7188 28.9921 18.1562 29.3983C19.6094 30.7343 21.7812 31.3593 23.6562 30.5468C24.5391 30.164 25.4375 29.453 25.8672 28.5702C26.0547 28.1796 26.2031 27.6796 25.9297 27.2812C25.625 26.8437 25.125 26.7655 24.625 26.8593C23.6016 27.0468 22.7344 27.7187 21.6875 27.789C20.6094 27.8671 19.5781 27.5702 18.5703 27.203C16.6094 26.4921 14.6016 25.6718 12.5391 26.5468C10.8672 27.2499 9.82031 28.8515 8.90625 30.3358C8.57031 30.8749 8.16406 31.3827 7.8125 31.9218C7.49219 32.414 7.16406 32.914 6.80469 33.3827C6.54687 33.7187 6.28125 34.0546 6.00781 34.3749C5.89844 34.4999 5.79688 34.6249 5.6875 34.7499C5.67969 34.7655 5.66406 34.7733 5.65625 34.789C5.66406 34.8437 5.66406 34.8983 5.65625 34.953C6.94531 35.5312 8.0625 36.4452 9.38281 36.9374C10.2656 37.2655 11.0781 37.1718 11.7656 36.4999C12.3672 35.914 12.8281 35.1952 13.4453 34.6249C14.25 33.8905 15.2734 33.5702 16.3437 33.8515C17.4687 34.1405 18.4766 34.7655 19.5781 35.1249C21.4922 35.7499 23.7656 36.3593 25.6484 35.3202C27.1406 34.4921 28.1484 33.0702 29.2109 31.7812C29.8203 31.0468 30.4609 30.3515 31.1484 29.6952C31.9609 28.9218 32.8359 28.1796 33.5234 27.2812C34.0078 26.6562 34.6641 25.664 34.3828 24.8202Z" fill="#FCBF95"/>
<path d="M35.2578 24.5078C35.1172 23.9765 34.7109 23.6719 34.2344 23.5547C34.2422 23.3437 34.2578 23.0859 34.0781 22.9531C33.875 22.8047 33.6641 22.6719 33.4375 22.5625C32.9688 22.3359 32.4297 22.2734 31.9141 22.3125C31.8281 22.3203 31.7422 22.3281 31.6562 22.3437C29.8516 21.125 28.2031 23.1797 26.75 24.0937C26.0312 24.5469 25.2969 24.9765 24.5703 25.4219C24.2031 25.6484 23.5312 25.9297 23.2734 26.3437C22.8516 26.5312 22.4297 26.7265 21.9766 26.8203C20.9219 27.039 19.8359 26.6953 18.8516 26.3359C17.8047 25.9609 16.7734 25.5234 15.6719 25.3281C14.2813 25.0781 12.8125 25.3203 11.5781 25.9922C10.3984 26.6328 9.52344 27.7265 8.78125 28.8203C7.80469 30.2578 6.91406 31.789 5.8125 33.125C5.5 33.5078 5.17969 33.875 4.85938 34.2969C4.71875 34.4844 4.59375 34.6953 4.67188 34.9375C4.71094 35.0625 4.78906 35.1484 4.88281 35.1953C4.82031 35.3906 4.875 35.6094 5.11719 35.7187C6.96094 36.5078 8.85938 38.4453 11.0156 37.9765C12.8672 37.5703 13.3359 35.1953 15.1094 34.7109C16.1563 34.4219 17.25 35.2109 18.1719 35.5859C19.2969 36.039 20.4688 36.3828 21.6563 36.6172C23.5625 37 25.4062 36.7422 26.9766 35.5547C28.3594 34.5078 29.3438 33.0234 30.4688 31.7265C31.875 30.1172 33.7109 28.875 34.8125 27.0156C35.2578 26.2812 35.4844 25.3515 35.2578 24.5078ZM31.4062 23.375C32.0391 23.125 32.7344 23.1953 33.3047 23.5469C32.5156 23.7031 31.7812 24.2422 31.1875 24.7578C30.5313 25.3281 29.9688 25.9922 29.4297 26.6797C28.1719 28.2734 26.9688 30.1406 24.9922 30.8828C26.1328 30.1172 27.0625 28.9453 27 27.6484C27 27.5703 26.9844 27.5 26.9766 27.4219C27.2422 27.3828 27.4062 27.1328 27.4062 26.9062C27.4375 26.875 27.4688 26.8515 27.4922 26.8281C27.6797 26.664 27.8672 26.5156 28.0547 26.3594C28.6016 25.9062 29.1016 25.4062 29.5859 24.8906C30.1328 24.3047 30.6406 23.6719 31.4062 23.375ZM27.0938 24.9687C27.6641 24.6172 28.1562 24.1953 28.6797 23.7812C29.1406 23.4219 29.7422 22.9609 30.3516 22.8984C29.9375 23.1875 29.5625 23.5547 29.2031 23.9375C28.5234 24.6562 27.8359 25.3203 27.0938 25.9375C26.8906 26.1094 26.6562 26.289 26.5 26.5156C26.2266 26.2422 25.8594 26.0469 25.4609 25.9609C26.0078 25.6328 26.5547 25.3047 27.0938 24.9687ZM33.5312 27.2812C32.8438 28.1797 31.9687 28.9219 31.1562 29.6953C30.4687 30.3515 29.8281 31.0469 29.2188 31.7812C28.1562 33.0703 27.1484 34.4922 25.6562 35.3203C23.7734 36.3594 21.5 35.75 19.5859 35.125C18.4766 34.7656 17.4766 34.1406 16.3516 33.8515C15.2813 33.5781 14.2578 33.8984 13.4531 34.625C12.8281 35.1953 12.3672 35.9062 11.7734 36.5C11.0859 37.1719 10.2734 37.2656 9.39063 36.9375C8.07031 36.4453 6.94531 35.5312 5.66406 34.9531C5.67188 34.8984 5.67969 34.8437 5.66406 34.789C5.67188 34.7734 5.6875 34.7656 5.69531 34.75C5.79688 34.625 5.90625 34.5 6.01563 34.375C6.28906 34.0547 6.54688 33.7187 6.8125 33.3828C7.17188 32.914 7.5 32.4219 7.82031 31.9219C8.17188 31.3906 8.57813 30.8828 8.91406 30.3359C9.83594 28.8515 10.8828 27.2578 12.5469 26.5469C14.6094 25.6797 16.6172 26.5 18.5781 27.2031C19.5781 27.5625 20.6172 27.8594 21.6953 27.789C22.7422 27.7187 23.6172 27.0469 24.6328 26.8594C25.1328 26.7656 25.6328 26.8437 25.9375 27.2812C26.2109 27.6797 26.0625 28.1797 25.875 28.5703C25.4453 29.4531 24.5469 30.164 23.6641 30.5469C21.7891 31.3594 19.6172 30.7344 18.1641 29.3984C17.7188 28.9922 17.1094 29.6953 17.5547 30.0937C19.0781 31.4922 21.1484 32.1172 23.1719 31.6797C23.6094 31.5859 24.0781 31.4062 24.5234 31.164C24.3672 31.4765 24.6484 31.9687 25.0859 31.8281C28.6016 30.6953 29.6562 26.7265 32.6016 24.8594C33.0703 24.5625 34.1328 24.0312 34.3906 24.8203C34.6641 25.664 34.0078 26.6562 33.5312 27.2812ZM29.6484 12.5625C29.3828 10.3672 28.6094 8.24998 27.25 6.49998C26.6094 5.67967 25.8906 4.91405 25.1328 4.1953C24.7656 3.84373 24.3906 3.5078 23.9688 3.21873C23.6641 3.0078 23.2656 2.74998 22.875 2.89842C22.8438 2.91405 22.8125 2.92967 22.7891 2.9453C22.5469 2.53123 21.8125 2.83592 21.9609 3.36717C22.1719 4.10936 22.3984 4.86717 22.2891 5.64061C22.1641 6.54686 21.6484 7.5078 21.1406 8.2578C20.1328 9.74998 18.4453 10.6094 17.0859 11.7344C16.4375 12.2734 15.8359 12.8828 15.4766 13.6562C15.1094 14.4453 15.1016 15.3515 15.3359 16.1797C15.5703 17.0156 16.1641 17.7578 16.7344 18.3906C17.2578 18.9844 17.8359 19.5234 18.3984 20.0781C18.1172 20.3906 18.4063 21.0078 18.8906 20.8281C18.9609 20.8047 19.0234 20.7812 19.0938 20.75C20.7891 21.7734 22.7891 21.9609 24.6641 21.25C26.3906 20.5937 27.8594 19.3984 28.7656 17.7812C29.6484 16.2265 29.8672 14.3359 29.6484 12.5625ZM24.25 4.64061C24.7734 5.10936 25.2734 5.61717 25.7422 6.14842C26.3906 6.86717 26.9453 7.6328 27.4062 8.45311C27.2187 8.39842 27.0078 8.46092 26.9219 8.6953C26.6719 9.35936 26.3438 9.92967 25.9375 10.4609C25.9766 9.48436 25.8828 8.49998 25.6406 7.56248C25.3359 6.39061 24.7109 5.37498 24 4.42186C24.0859 4.49217 24.1719 4.56248 24.25 4.64061ZM19.1719 19.5547C18.5859 18.9765 17.9844 18.414 17.4375 17.8047C16.9063 17.2187 16.3203 16.4922 16.1719 15.6953C15.8125 13.8125 17.3516 12.6562 18.7031 11.664C20.1484 10.6015 21.5547 9.61717 22.3828 7.97655C22.7734 7.1953 23.1719 6.40623 23.2422 5.52342C23.2578 5.32811 23.2578 5.14061 23.2422 4.9453C23.8516 5.77342 24.3828 6.6328 24.6953 7.6328C24.9531 8.46092 25.0469 9.33592 25.0234 10.2187C24.6484 9.56248 24.1016 8.98436 23.5 8.61717C22.9844 8.30467 22.5781 9.14061 23.0859 9.4453C23.9063 9.93748 24.5703 11.0156 24.6016 11.9765C24.6094 12.125 24.6641 12.2344 24.75 12.2969C24.6953 12.5469 24.6328 12.789 24.5625 13.0312C24.4766 13.3515 24.3672 13.664 24.2578 13.9844C23.7422 12.9765 22.9531 12.125 22.2813 11.1719C21.9375 10.6875 21.1641 11.2031 21.5156 11.6875C22.3203 12.8281 23.4453 13.875 23.7891 15.2656C23.7656 15.3281 23.7422 15.3906 23.7188 15.4531C23.5078 16.0156 23.2578 16.5781 22.9531 17.0937C22.5 15.5312 21.5156 14.1797 20.4375 12.9765C20.0391 12.5312 19.4297 13.2344 19.8281 13.6719C20.8906 14.8672 21.9297 16.2969 22.2031 17.914C22.2109 17.9609 22.2266 18.0078 22.25 18.0547C21.4531 18.875 20.3672 19.3203 19.2891 19.7187C19.2578 19.6562 19.2188 19.6094 19.1719 19.5547ZM28.2031 16.8437C27.4766 18.5312 26.0391 19.7344 24.3516 20.3984C23.0078 20.9297 21.5312 20.9062 20.2266 20.3359C21.1953 19.9375 22.125 19.4687 22.875 18.7187C24.6562 18.6562 26.4453 17.414 27.3672 15.9375C27.6797 15.4297 26.8516 15.0234 26.5391 15.5234C25.9453 16.4844 24.8516 17.3125 23.7031 17.6484C24 17.164 24.2422 16.6406 24.4531 16.1172C24.4766 16.0547 24.5078 15.9844 24.5313 15.9219C24.7891 15.9687 25.125 15.7969 25.1406 15.4453C25.1484 15.3437 25.4922 15 25.6484 14.8672C26.0078 14.5625 26.3984 14.289 26.7656 13.9922C27.2656 13.6015 28.1406 12.9062 27.7656 12.164C27.5 11.6406 26.625 11.9375 26.8906 12.4687C26.9453 12.5859 26.9375 12.4844 26.8984 12.5703C26.8359 12.7031 26.7031 12.8203 26.5938 12.9219C26.2969 13.2109 25.9375 13.4531 25.6094 13.7031C25.4844 13.7969 25.3516 13.8984 25.2109 14.0078C25.2812 13.789 25.3516 13.5703 25.4219 13.3515C25.5703 12.8672 25.6875 12.375 25.7734 11.875C25.8594 11.8594 25.9531 11.8203 26.0312 11.7344C26.7891 10.9609 27.3516 10.125 27.7344 9.11717C28.0781 9.85155 28.3438 10.6328 28.5 11.4687C28.8672 13.289 28.9609 15.1015 28.2031 16.8437Z" fill="#434E58"/>
</svg>