<svg xmlns="http://www.w3.org/2000/svg" width="41" height="30" viewBox="0 0 41 30" fill="none">
  <circle cx="11.0791" cy="6" r="5" fill="url(#paint0_linear_154_929)"/>
  <circle cx="20.0791" cy="11" r="5" fill="url(#paint1_linear_154_929)"/>
  <circle cx="29.0791" cy="6" r="5" fill="url(#paint2_linear_154_929)"/>
  <path d="M9.07908 24H0.0790836C-0.720916 16.8 4.74575 12.6667 7.57908 11.5L13.5791 11L17.5791 17L22.0791 16L24.5791 11.5H31.0791C38.6791 13.9 39.5791 20.8333 39.0791 24H29.5791L30.0791 29.5H9.07908V24Z" fill="url(#paint3_linear_154_929)"/>
  <path fill-rule="evenodd" clip-rule="evenodd" d="M16.5447 9.36532C16.2445 9.94624 16.0756 10.6142 16.0756 11.3314C16.0756 11.5366 16.0928 11.7393 16.1259 11.9298C16.1275 11.939 16.129 11.9482 16.1302 11.9574C16.4235 14.0451 18.196 15.6607 20.3528 15.7209C20.3726 15.718 20.3878 15.7166 20.3969 15.7157C20.4159 15.714 20.4322 15.7131 20.4448 15.7127L20.4625 15.7122L20.4702 15.7121L20.4738 15.7121L20.4755 15.7121L20.4768 15.7121C20.477 15.7121 20.4772 15.7121 20.4772 16.5519L20.4768 15.7121C20.518 15.7121 20.5589 15.715 20.5985 15.7206C22.7505 15.657 24.5104 14.044 24.8034 11.9673C24.8046 11.9584 24.806 11.9494 24.8076 11.9405C24.8404 11.7516 24.8579 11.5385 24.8579 11.3314C24.8579 10.6052 24.6847 9.92155 24.3702 9.32834C24.3374 9.27334 24.3133 9.23143 24.2919 9.19419C24.26 9.13867 24.234 9.09355 24.1942 9.03095L24.1865 9.01861C23.4237 7.77358 22.0372 6.94025 20.4668 6.94025C18.9404 6.94025 17.6012 7.71928 16.8138 8.90316C16.8035 8.9215 16.7923 8.93971 16.7803 8.95774C16.7801 8.95805 16.7799 8.95836 16.7797 8.95867C16.7302 9.05371 16.6736 9.15487 16.6073 9.25611C16.5839 9.30179 16.5611 9.33961 16.5447 9.36532ZM20.472 17.4219C20.4737 17.4219 20.4755 17.422 20.4772 17.422H20.4877L20.4911 17.4219C23.5447 17.4098 26.0639 15.1506 26.4842 12.218C26.5336 11.9288 26.5573 11.6228 26.5573 11.3314C26.5573 10.3244 26.3145 9.35801 25.859 8.50858C25.8526 8.49659 25.8459 8.48476 25.8389 8.47309C25.8286 8.45607 25.8131 8.42933 25.7943 8.39698C25.7494 8.31962 25.6859 8.21019 25.6319 8.12487C24.5701 6.39643 22.6463 5.24084 20.4668 5.24084C18.3429 5.24084 16.4833 6.32894 15.3962 7.96592C15.3612 8.01048 15.3304 8.05893 15.3045 8.11083C15.2484 8.22302 15.2072 8.2952 15.1691 8.34955C15.142 8.38837 15.1181 8.42935 15.0978 8.47204C15.085 8.49199 15.0731 8.51248 15.062 8.53344C14.6193 9.36953 14.3762 10.3237 14.3762 11.3314C14.3762 11.6245 14.4002 11.9201 14.4493 12.2074C14.8698 15.1518 17.4006 17.4098 20.4529 17.4219L20.4668 17.422C20.4685 17.422 20.4702 17.4219 20.472 17.4219Z" fill="#2277B9"/>
  <path fill-rule="evenodd" clip-rule="evenodd" d="M20.4775 15.712C20.9468 15.712 21.3272 16.0925 21.3272 16.5617V16.5722C21.3272 17.0415 20.9468 17.4219 20.4775 17.4219H20.4671C20.2417 17.4219 20.0255 17.3324 19.8661 17.173C19.8211 17.1279 19.4949 16.7929 19.6573 16.3002C19.7926 15.8894 20.154 15.7718 20.1961 15.7581C20.1972 15.7578 20.198 15.7575 20.1987 15.7573C20.2926 15.7258 20.3708 15.7181 20.3972 15.7157C20.4162 15.714 20.4325 15.7131 20.4451 15.7126L20.4628 15.7122L20.4705 15.7121L20.4741 15.712L20.4758 15.712L20.4775 15.712C20.4775 15.712 20.4772 15.712 20.4772 15.7225L20.4775 15.712ZM21.2451 16.2331C21.1876 16.0994 21.1094 16.0129 21.068 15.9715L20.4776 16.5617" fill="#2277B9"/>
  <path fill-rule="evenodd" clip-rule="evenodd" d="M20.4564 17.4219C16.1537 17.4219 12.5016 20.262 11.2781 24.1637L11.2776 24.1653C10.989 25.0792 10.8349 26.0411 10.8349 27.0539V28.3006H30.0989V27.0539C30.0989 26.0412 29.9448 25.0792 29.6562 24.1653L29.6558 24.164C29.1842 22.6626 28.3561 21.3236 27.2767 20.2442C27.2767 20.2442 27.2767 20.2442 27.2767 20.2442M20.4564 17.4219H20.4862H20.4564ZM20.4862 17.4219C23.1364 17.432 25.533 18.5006 27.2767 20.2442L20.4862 17.4219ZM9.6568 23.6544C11.0959 19.0663 15.3887 15.7225 20.4564 15.7225H20.4909C23.605 15.7339 26.4277 16.992 28.4783 19.0425C29.7466 20.3109 30.7213 21.8857 31.2769 23.6544C31.6171 24.7317 31.7983 25.8659 31.7983 27.0539V29.1503C31.7983 29.6196 31.4179 30 30.9486 30H9.9852C9.51592 30 9.1355 29.6196 9.1355 29.1503V27.0539C9.1355 25.8659 9.31667 24.7318 9.6568 23.6544Z" fill="#2277B9"/>
  <path fill-rule="evenodd" clip-rule="evenodd" d="M11.4105 12.1811C6.08392 12.1811 1.7785 16.4959 1.7785 21.8131V23.0597H9.86163C11.4727 18.7803 15.6101 15.7225 20.4562 15.7225C20.9255 15.7225 21.3059 16.103 21.3059 16.5722C21.3059 17.0415 20.9255 17.4219 20.4562 17.4219C16.1535 17.4219 12.5014 20.262 11.2779 24.1637C11.1668 24.518 10.8385 24.7591 10.4671 24.7591H0.928803C0.459526 24.7591 0.0791016 24.3787 0.0791016 23.9094V21.8131C0.0791016 15.5585 5.14426 10.4817 11.4105 10.4817C12.8923 10.4817 14.3105 10.7646 15.6067 11.2876C16.0419 11.4632 16.2523 11.9583 16.0767 12.3935C15.9011 12.8287 15.406 13.0391 14.9708 12.8635C13.8771 12.4223 12.6749 12.1811 11.4105 12.1811Z" fill="#2277B9"/>
  <path fill-rule="evenodd" clip-rule="evenodd" d="M20.4775 15.712C20.9468 15.712 21.3272 16.0925 21.3272 16.5617V16.5722C21.3272 17.0415 20.9468 17.4219 20.4775 17.4219H20.4671C20.2417 17.4219 20.0255 17.3324 19.8661 17.173C19.8211 17.1279 19.4949 16.7929 19.6573 16.3002C19.7926 15.8894 20.154 15.7718 20.1961 15.7581C20.1972 15.7578 20.198 15.7575 20.1987 15.7573C20.2926 15.7258 20.3708 15.7181 20.3972 15.7157C20.4162 15.714 20.4325 15.7131 20.4451 15.7126L20.4628 15.7122L20.4705 15.7121L20.4741 15.712L20.4758 15.712L20.4775 15.712C20.4775 15.712 20.4772 15.712 20.4772 15.7225L20.4775 15.712ZM21.2451 16.2331C21.1876 16.0994 21.1094 16.0129 21.068 15.9715L20.4776 16.5617" fill="#2277B9"/>
  <path fill-rule="evenodd" clip-rule="evenodd" d="M11.4106 1.6994C8.97755 1.6994 7.01947 3.66576 7.01947 6.09055C7.01947 8.51535 8.97755 10.4817 11.4106 10.4817C12.9548 10.4817 14.3151 9.68474 15.0979 8.47203C15.126 8.41297 15.1608 8.35724 15.2018 8.30599C15.224 8.27822 15.2499 8.23678 15.2801 8.16408C15.2998 8.11699 15.3233 8.07234 15.3503 8.03045C15.6376 7.44959 15.8018 6.78713 15.8018 6.09055C15.8018 3.66687 13.8343 1.6994 11.4106 1.6994ZM5.32007 6.09055C5.32007 2.72942 8.03678 0 11.4106 0C14.7729 -1.01292e-07 17.5012 2.72832 17.5012 6.09055C17.5012 7.07165 17.2659 8.00696 16.8519 8.82714C16.8378 8.85934 16.8213 8.89135 16.8024 8.92291C16.7471 9.04113 16.6795 9.16226 16.594 9.28151C16.5595 9.34541 16.5288 9.38971 16.5216 9.39996C15.4376 11.0747 13.5519 12.1811 11.4106 12.1811C8.03678 12.1811 5.32007 9.45168 5.32007 6.09055Z" fill="#2277B9"/>
  <path fill-rule="evenodd" clip-rule="evenodd" d="M20.4775 15.712C20.9468 15.712 21.3272 16.0925 21.3272 16.5617V16.5722C21.3272 17.0415 20.9468 17.4219 20.4775 17.4219H20.4671C20.2417 17.4219 20.0255 17.3324 19.8661 17.173C19.8211 17.1279 19.4949 16.7929 19.6573 16.3002C19.7926 15.8894 20.154 15.7718 20.1961 15.7581C20.1972 15.7578 20.198 15.7575 20.1987 15.7573C20.2926 15.7258 20.3708 15.7181 20.3972 15.7157C20.4162 15.714 20.4325 15.7131 20.4451 15.7126L20.4628 15.7122L20.4705 15.7121L20.4741 15.712L20.4758 15.712L20.4775 15.712C20.4775 15.712 20.4772 15.712 20.4772 15.7225L20.4775 15.712ZM21.2451 16.2331C21.1876 16.0994 21.1094 16.0129 21.068 15.9715L20.4776 16.5617" fill="#2277B9"/>
  <path fill-rule="evenodd" clip-rule="evenodd" d="M29.5334 12.1811C28.2695 12.1811 27.0685 12.4221 25.9661 12.8726C25.5317 13.0501 25.0357 12.8419 24.8581 12.4075C24.6806 11.9731 24.8888 11.477 25.3232 11.2995C26.6316 10.7648 28.051 10.4817 29.5334 10.4817C32.661 10.4817 35.4949 11.7518 37.5448 13.8017C39.5946 15.8515 40.8648 18.6855 40.8648 21.8131V23.9094C40.8648 24.3787 40.4843 24.7591 40.0151 24.7591H30.4662C30.0951 24.7591 29.7668 24.5182 29.6556 24.1641C29.184 22.6626 28.3559 21.3237 27.2765 20.2442C25.5325 18.5003 23.1354 17.4316 20.4845 17.4219C20.0153 17.4202 19.6362 17.0384 19.6379 16.5692C19.6397 16.0999 20.0215 15.7208 20.4907 15.7225C23.6049 15.7339 26.4276 16.9921 28.4781 19.0425L28.4781 19.0425C29.6025 20.1669 30.4961 21.5321 31.0715 23.0597H39.1654V21.8131C39.1654 19.1548 38.0876 16.7479 36.3431 15.0033C34.5986 13.2588 32.1917 12.1811 29.5334 12.1811Z" fill="#2277B9"/>
  <path fill-rule="evenodd" clip-rule="evenodd" d="M29.5332 1.6994C27.1095 1.6994 25.142 3.66687 25.142 6.09055C25.142 6.8354 25.3298 7.53912 25.648 8.15089C25.6981 8.23156 25.7537 8.3273 25.7941 8.397C25.8095 8.42354 25.8227 8.4463 25.8326 8.46301C26.6168 9.67961 27.9838 10.4817 29.5332 10.4817C31.9569 10.4817 33.9243 8.51424 33.9243 6.09055C33.9243 3.66687 31.9569 1.6994 29.5332 1.6994ZM23.4426 6.09055C23.4426 2.72832 26.1709 0 29.5332 0C32.8954 0 35.6237 2.72832 35.6237 6.09055C35.6237 9.45279 32.8954 12.1811 29.5332 12.1811C27.3768 12.1811 25.4771 11.0593 24.3944 9.36833C24.3899 9.36134 24.3855 9.35429 24.3812 9.34717C24.3426 9.28271 24.3155 9.23557 24.2917 9.19419C24.2597 9.13867 24.2338 9.09355 24.194 9.03096C24.1817 9.0117 24.1702 8.99196 24.1596 8.97177C23.7106 8.12228 23.4426 7.13764 23.4426 6.09055Z" fill="#2277B9"/>
  <defs>
    <linearGradient id="paint0_linear_154_929" x1="12.1859" y1="-3.72973" x2="12.1859" y2="14.6486" gradientUnits="userSpaceOnUse">
      <stop stop-color="#C7DAFD"/>
      <stop offset="1" stop-color="#E9F1FF"/>
    </linearGradient>
    <linearGradient id="paint1_linear_154_929" x1="21.1859" y1="1.27027" x2="21.1859" y2="19.6486" gradientUnits="userSpaceOnUse">
      <stop stop-color="#C7DAFD"/>
      <stop offset="1" stop-color="#E9F1FF"/>
    </linearGradient>
    <linearGradient id="paint2_linear_154_929" x1="30.1859" y1="-3.72973" x2="30.1859" y2="14.6486" gradientUnits="userSpaceOnUse">
      <stop stop-color="#C7DAFD"/>
      <stop offset="1" stop-color="#E9F1FF"/>
    </linearGradient>
    <linearGradient id="paint3_linear_154_929" x1="23.934" y1="2.25" x2="23.934" y2="36.25" gradientUnits="userSpaceOnUse">
      <stop stop-color="#C7DAFD"/>
      <stop offset="1" stop-color="#E9F1FF"/>
    </linearGradient>
  </defs>
</svg> 