<svg xmlns="http://www.w3.org/2000/svg" width="30" height="30" viewBox="0 0 30 30" fill="none">
  <path d="M9 17.5L14 6.5H16.5L21 18L18.5 22L19.5 29.5L10.5 29L12 22L9 17.5Z" fill="url(#paint0_linear_154_950)"/>
  <path d="M4.375 5H0.625C0.279813 5 0 4.72019 0 4.375V0.625C0 0.279813 0.279813 0 0.625 0H4.375C4.72019 0 5 0.279813 5 0.625V4.375C5 4.72019 4.72019 5 4.375 5ZM1.25 3.75H3.75V1.25H1.25V3.75Z" fill="#2277B9"/>
  <path d="M29.375 5H25.625C25.2799 5 25 4.72019 25 4.375V0.625C25 0.279813 25.2799 0 25.625 0H29.375C29.7201 0 30 0.279813 30 0.625V4.375C30 4.72019 29.7201 5 29.375 5ZM26.25 3.75H28.75V1.25H26.25V3.75Z" fill="#2277B9"/>
  <path d="M2.64075 13.7501C2.60981 13.7501 2.5785 13.7478 2.547 13.743C2.20569 13.6917 1.97056 13.3733 2.02194 13.032C2.44069 10.2482 3.71925 7.71959 5.71938 5.71947C7.7195 3.71935 10.2482 2.44078 13.0319 2.02203C13.3733 1.97078 13.6916 2.20572 13.7429 2.5471C13.7942 2.88847 13.5592 3.20678 13.2179 3.2581C8.12044 4.02491 4.02475 8.1206 3.25794 13.218C3.21144 13.5278 2.94488 13.7501 2.64075 13.7501Z" fill="#2277B9"/>
  <path d="M27.3592 13.75C27.0552 13.75 26.7886 13.5277 26.742 13.2179C25.9751 8.12049 21.8795 4.0248 16.7821 3.25799C16.4407 3.20667 16.2057 2.8883 16.257 2.54699C16.3084 2.20567 16.6272 1.97061 16.968 2.02192C19.7519 2.44067 22.2805 3.71924 24.2807 5.71936C26.2808 7.71949 27.5594 10.2481 27.9781 13.0319C28.0294 13.3732 27.7944 13.6916 27.453 13.7429C27.4215 13.7477 27.3902 13.75 27.3592 13.75Z" fill="#2277B9"/>
  <path d="M4.375 17.5H0.625C0.279813 17.5 0 17.2201 0 16.875V13.125C0 12.7798 0.279813 12.5 0.625 12.5H4.375C4.72019 12.5 5 12.7798 5 13.125V16.875C5 17.2201 4.72019 17.5 4.375 17.5ZM1.25 16.25H3.75V13.75H1.25V16.25Z" fill="#2277B9"/>
  <path d="M29.375 17.5H25.625C25.2799 17.5 25 17.2201 25 16.875V13.125C25 12.7798 25.2799 12.5 25.625 12.5H29.375C29.7201 12.5 30 12.7798 30 13.125V16.875C30 17.2201 29.7201 17.5 29.375 17.5ZM26.25 16.25H28.75V13.75H26.25V16.25Z" fill="#2277B9"/>
  <path d="M16.875 5H13.125C12.7798 5 12.5 4.72019 12.5 4.375V0.625C12.5 0.279813 12.7798 0 13.125 0H16.875C17.2201 0 17.5 0.279813 17.5 0.625V4.375C17.5 4.72019 17.2201 5 16.875 5ZM13.75 3.75H16.25V1.25H13.75V3.75Z" fill="#2277B9"/>
  <path d="M13.125 3.125H4.375C4.02981 3.125 3.75 2.84519 3.75 2.5C3.75 2.15481 4.02981 1.875 4.375 1.875H13.125C13.4702 1.875 13.75 2.15481 13.75 2.5C13.75 2.84519 13.4702 3.125 13.125 3.125Z" fill="#2277B9"/>
  <path d="M25.625 3.125H16.875C16.5299 3.125 16.25 2.84519 16.25 2.5C16.25 2.15481 16.5299 1.875 16.875 1.875H25.625C25.9701 1.875 26.25 2.15481 26.25 2.5C26.25 2.84519 25.9701 3.125 25.625 3.125Z" fill="#2277B9"/>
  <path d="M15 15.625C14.6548 15.625 14.375 15.3451 14.375 15V6.25C14.375 5.90481 14.6548 5.625 15 5.625C15.3451 5.625 15.625 5.90481 15.625 6.25V15C15.625 15.3451 15.3451 15.625 15 15.625Z" fill="#2277B9"/>
  <path d="M15 19.375C13.6215 19.375 12.5 18.2535 12.5 16.875C12.5 15.4965 13.6215 14.375 15 14.375C16.3785 14.375 17.5 15.4965 17.5 16.875C17.5 18.2535 16.3785 19.375 15 19.375ZM15 15.625C14.3108 15.625 13.75 16.1858 13.75 16.875C13.75 17.5642 14.3108 18.125 15 18.125C15.6892 18.125 16.25 17.5642 16.25 16.875C16.25 16.1858 15.6892 15.625 15 15.625Z" fill="#2277B9"/>
  <path d="M18.8541 26.8751H11.1458C10.9621 26.8751 10.7876 26.7943 10.6689 26.6541C10.5501 26.5139 10.4991 26.3286 10.5293 26.1474L11.2114 22.055L8.26988 18.5252C8.12032 18.3457 8.08332 18.0978 8.17401 17.8825L13.174 6.0075C13.2716 5.77575 13.4986 5.625 13.75 5.625H16.25C16.5014 5.625 16.7284 5.77569 16.8261 6.0075L21.8261 17.8825C21.9167 18.0978 21.8797 18.3457 21.7302 18.5252L18.7887 22.055L19.4708 26.1473C19.5009 26.3286 19.4499 26.5139 19.3311 26.6541C19.2123 26.7943 19.0378 26.8751 18.8541 26.8751ZM11.8836 25.6251H18.1163L17.5084 21.9779C17.4784 21.7984 17.5283 21.6147 17.6448 21.4749L20.5263 18.0171L15.8349 6.87506H14.1649L9.47357 18.0171L12.3551 21.4749C12.4716 21.6147 12.5214 21.7983 12.4914 21.9778L11.8836 25.6251Z" fill="#2277B9"/>
  <path d="M19.375 29.9999H10.625C10.4413 29.9999 10.2668 29.9191 10.1481 29.7789C10.0293 29.6387 9.97828 29.4534 10.0085 29.2722L10.5293 26.1472C10.5796 25.8459 10.8403 25.625 11.1458 25.625H18.8542C19.1597 25.625 19.4205 25.8459 19.4707 26.1472L19.9915 29.2722C20.0216 29.4534 19.9706 29.6387 19.8518 29.7789C19.7331 29.9191 19.5587 29.9999 19.375 29.9999ZM11.3628 28.7499H18.6372L18.3247 26.8749H11.6753L11.3628 28.7499Z" fill="#2277B9"/>
  <defs>
    <linearGradient id="paint0_linear_154_950" x1="16.3282" y1="-4.37838" x2="16.3282" y2="37.8919" gradientUnits="userSpaceOnUse">
      <stop stop-color="#C7DAFD"/>
      <stop offset="1" stop-color="#E9F1FF"/>
    </linearGradient>
  </defs>
</svg> 