<svg xmlns="http://www.w3.org/2000/svg" width="30" height="30" viewBox="0 0 30 30" fill="none">
<path d="M29 15C25.5 17.5 26 22 24 24.5C18.5 26 17.5 28 15 28.0004C13.5 28.5004 10.5 25.0004 5.5 24.5004C4.98868 22.7108 4.76472 20.6197 4 19C3.26915 17.452 1.99723 16.3674 1.5 15C4.5 11 5 6 6 5.00041C9 5.00041 13 2.5 15.5 1.5C18.5 4.5 22.1372 5.00041 24 5.00041C25.5 7.50041 25.5 10.5 29 15Z" fill="url(#paint0_linear_64_852)"/>
<path d="M21.6684 26.2936C22.1119 26.7371 22.6822 26.9588 23.2841 26.9588C23.886 26.9588 24.4562 26.7054 24.8997 26.2936L26.2936 24.8997C27.1806 24.0127 27.1806 22.5554 26.2936 21.6684L25.6283 21.0032C26.1035 20.1478 26.4836 19.2291 26.7687 18.2788H27.7191C28.9863 18.2788 30 17.265 30 15.9979V14.0021C30 12.735 28.9863 11.7212 27.7191 11.7212H26.7687C26.5153 10.7709 26.1352 9.85216 25.6283 8.99683L26.2936 8.33157C27.1806 7.44456 27.1806 5.98733 26.2936 5.10032L24.8997 3.70644C24.4562 3.26294 23.886 3.04118 23.2841 3.04118C22.6822 3.04118 22.1119 3.29461 21.6684 3.70644L21.0032 4.3717C20.1478 3.89652 19.2291 3.51637 18.2788 3.23126V2.28089C18.2788 1.01373 17.265 0 15.9979 0H14.0021C12.735 0 11.7212 1.01373 11.7212 2.28089V3.23126C10.7709 3.48469 9.85216 3.86484 8.99683 4.3717L8.33157 3.70644C7.88807 3.26294 7.31784 3.04118 6.71594 3.04118C6.11404 3.04118 5.54382 3.29461 5.10032 3.70644L3.70644 5.10032C2.81943 5.98733 2.81943 7.44456 3.70644 8.33157L4.3717 8.99683C3.89652 9.85216 3.51637 10.7709 3.23126 11.7212H2.28089C1.01373 11.7212 0 12.735 0 14.0021V15.9979C0 17.265 1.01373 18.2788 2.28089 18.2788H3.23126C3.48469 19.2291 3.86484 20.1478 4.3717 21.0032L3.70644 21.6684C2.81943 22.5554 2.81943 24.0127 3.70644 24.8997L5.10032 26.2936C5.54382 26.7371 6.11404 26.9588 6.71594 26.9588C7.31784 26.9588 7.88807 26.7054 8.33157 26.2936L8.99683 25.6283C9.85216 26.1035 10.7709 26.4836 11.7212 26.7687V27.7191C11.7212 28.9863 12.735 30 14.0021 30H15.9979C17.265 30 18.2788 28.9863 18.2788 27.7191V26.7687C19.2291 26.5153 20.1478 26.1352 21.0032 25.6283L21.6684 26.2936ZM16.9483 24.773L16.0612 24.963V27.6874C16.0612 27.7191 16.0296 27.7508 15.9979 27.7508H14.0021C13.9704 27.7508 13.9388 27.7191 13.9388 27.6874V24.963L13.0517 24.773C11.7529 24.5195 10.5491 24.0127 9.47202 23.2841L8.71172 22.7772L6.74762 24.7413H6.65259L5.25871 23.3474C5.22703 23.3157 5.22703 23.2841 5.25871 23.2524L7.19113 21.32L6.68427 20.5597C5.95565 19.4509 5.44878 18.2471 5.19535 16.9799L5.00528 16.0929H2.28089C2.24921 16.0929 2.21753 16.0612 2.21753 16.0296V14.0338C2.21753 14.0021 2.24921 13.9704 2.28089 13.9704H5.00528L5.19535 13.0834C5.44878 11.7846 5.95565 10.5808 6.68427 9.5037L7.19113 8.7434L5.22703 6.74762C5.19535 6.71594 5.19535 6.68427 5.22703 6.65259L6.62091 5.25871H6.71594L8.64836 7.19113L9.40866 6.68427C10.5174 5.95565 11.7212 5.44878 12.9884 5.19535L13.8754 5.00528V2.28089C13.8754 2.24921 13.9071 2.21753 13.9388 2.21753H15.9345C15.9662 2.21753 15.9979 2.24921 15.9979 2.28089V5.00528L16.8849 5.19535C18.1837 5.44878 19.3875 5.95565 20.4646 6.68427L21.2249 7.19113L23.1573 5.25871H23.2524L24.6462 6.65259C24.6779 6.68427 24.6779 6.71594 24.6462 6.74762L22.7138 8.68004L23.2207 9.44034C23.9493 10.5491 24.4562 11.7529 24.7096 13.0201L24.8997 13.9071H27.6241C27.6558 13.9071 27.6874 13.9388 27.6874 13.9704V15.9662C27.6874 15.9979 27.6558 16.0296 27.6241 16.0296H24.8997L24.7096 16.9166C24.4562 18.2154 23.9493 19.4192 23.2207 20.4963L22.7138 21.2566L24.6462 23.189C24.6779 23.2207 24.6779 23.2524 24.6462 23.2841L23.2524 24.6779H23.1573L21.2249 22.7455L20.4646 23.2524C19.4509 24.0443 18.2154 24.5195 16.9483 24.773ZM21.1299 14.9842C21.1299 18.3738 18.3738 21.1299 14.9842 21.1299C11.5945 21.1299 8.83844 18.3738 8.83844 14.9842C8.83844 11.5945 11.5945 8.83844 14.9842 8.83844C15.5861 8.83844 16.0929 9.3453 16.0929 9.9472C16.0929 10.5491 15.5861 11.056 14.9842 11.056C12.83 11.056 11.056 12.83 11.056 14.9842C11.056 17.1383 12.83 18.9124 14.9842 18.9124C17.1383 18.9124 18.9124 17.1383 18.9124 14.9842C18.9124 14.3823 19.4192 13.8754 20.0211 13.8754C20.623 13.8754 21.1299 14.3823 21.1299 14.9842Z" fill="#2277B9"/>
<defs>
<linearGradient id="paint0_linear_64_852" x1="18.4884" y1="-11.057" x2="18.4884" y2="37.736" gradientUnits="userSpaceOnUse">
<stop stop-color="#C7DAFD"/>
<stop offset="1" stop-color="#E9F1FF"/>
</linearGradient>
</defs>
</svg>