<svg xmlns="http://www.w3.org/2000/svg" width="30" height="30" viewBox="0 0 30 30" fill="none">
  <path d="M14.999 2C12.1143 2 9.31158 2.95947 7.03208 4.72733C4.75258 6.49518 3.12583 8.971 2.40798 11.7649C1.69012 14.5589 1.92194 17.5122 3.06693 20.16C4.21192 22.8077 6.20504 24.9994 8.73245 26.3899C11.2599 27.7805 14.178 28.2909 17.0274 27.8408C19.8767 27.3907 22.4954 26.0057 24.4712 23.9038C26.4469 21.802 27.6675 19.1026 27.9406 16.2309C28.2138 13.3592 27.524 10.4782 25.9799 8.04152L21.5313 10.8606C22.4498 12.3101 22.8602 14.0239 22.6977 15.7322C22.5352 17.4406 21.8091 19.0463 20.6338 20.2967C19.4585 21.547 17.9007 22.371 16.2056 22.6387C14.5106 22.9065 12.7747 22.6028 11.2712 21.7756C9.76767 20.9484 8.58201 19.6446 7.90088 18.0695C7.21975 16.4945 7.08185 14.7376 7.50888 13.0755C7.93592 11.4135 8.90364 9.94067 10.2597 8.88901C11.6157 7.83735 13.283 7.26658 14.999 7.26658L14.999 2Z" fill="url(#paint0_linear_154_995)"/>
  <path d="M15 7C13.2228 7 11.4963 7.59175 10.0927 8.68188C8.68918 9.77201 7.68858 11.2984 7.24881 13.0203C6.80904 14.7422 6.95513 16.5615 7.66404 18.1912C8.37294 19.8208 9.6043 21.168 11.1638 22.0202C12.7233 22.8724 14.5222 23.1811 16.2766 22.8975C18.031 22.6139 19.641 21.7542 20.8526 20.4541C22.0642 19.154 22.8084 17.4874 22.9678 15.7174C23.1271 13.9474 22.6926 12.1747 21.7327 10.6791L18.5294 12.7349C19.0326 13.5189 19.2604 14.4482 19.1769 15.3761C19.0933 16.304 18.7032 17.1776 18.0681 17.8591C17.4329 18.5407 16.5889 18.9914 15.6692 19.14C14.7495 19.2887 13.8065 19.1269 12.989 18.6801C12.1715 18.2334 11.526 17.5272 11.1543 16.6729C10.7827 15.8186 10.7061 14.8649 10.9367 13.9622C11.1672 13.0596 11.6917 12.2594 12.4275 11.6879C13.1633 11.1164 14.0684 10.8062 15 10.8062L15 7Z" fill="url(#paint1_linear_154_995)"/>
  <ellipse cx="15" cy="15" rx="3" ry="3" transform="rotate(-90 15 15)" fill="url(#paint2_linear_154_995)"/>
  <path d="M27.6494 6.92142C27.496 6.68131 27.2534 6.51198 26.9751 6.4507C26.6968 6.38942 26.4056 6.44119 26.1655 6.59464C25.9254 6.74808 25.756 6.99063 25.6947 7.26892C25.6335 7.54721 25.6852 7.83845 25.8387 8.07857C27.3408 10.4507 28.0251 13.2494 27.787 16.047C27.549 18.8446 26.4017 21.4874 24.5204 23.5717C22.6391 25.6559 20.1272 27.067 17.3685 27.5895C14.6098 28.1119 11.756 27.717 9.24284 26.4649C6.72973 25.2129 4.69554 23.1726 3.45103 20.6558C2.20651 18.1389 1.82009 15.2839 2.35078 12.5267C2.88148 9.76962 4.30012 7.26201 6.39 5.38696C8.47987 3.51192 11.1261 2.37254 13.9244 2.14286V5.35714C11.8601 5.58755 9.92541 6.47835 8.40821 7.89696C6.89102 9.31558 5.87244 11.1862 5.50407 13.2304C5.1357 15.2745 5.43724 17.383 6.36381 19.242C7.29037 21.101 8.79243 22.6111 10.6464 23.5476C12.5004 24.4841 14.6073 24.7969 16.6534 24.4395C18.6995 24.0821 20.5755 23.0735 22.0023 21.5639C23.429 20.0543 24.3301 18.1244 24.5715 16.0614C24.813 13.9984 24.3818 11.9125 23.3423 10.1143C23.194 9.88107 22.9614 9.71416 22.693 9.64841C22.4246 9.58266 22.1411 9.62317 21.9019 9.76146C21.6626 9.89976 21.4861 10.1251 21.4091 10.3906C21.3321 10.656 21.3606 10.9408 21.4887 11.1857C22.3066 12.5687 22.6586 14.1779 22.4931 15.7761C22.3275 17.3743 21.6531 18.8771 20.5691 20.0631C19.4851 21.2491 18.0489 22.0557 16.472 22.364C14.8951 22.6723 13.2608 22.466 11.81 21.7755C10.3592 21.085 9.16843 19.9468 8.41319 18.5286C7.65794 17.1104 7.37811 15.4872 7.61492 13.898C7.85173 12.3087 8.59265 10.8376 9.72856 9.70118C10.8645 8.56478 12.3353 7.82321 13.9244 7.58571V10.8643C12.9144 11.1251 12.0342 11.7452 11.4488 12.6086C10.8633 13.4719 10.6128 14.5191 10.7443 15.5539C10.8757 16.5887 11.38 17.5401 12.1627 18.2296C12.9454 18.9192 13.9527 19.2996 14.9958 19.2996C16.039 19.2996 17.0463 18.9192 17.8289 18.2296C18.6116 17.5401 19.116 16.5887 19.2474 15.5539C19.3788 14.5191 19.1284 13.4719 18.5429 12.6086C17.9575 11.7452 17.0773 11.1251 16.0673 10.8643V1.07143C16.0673 0.787268 15.9544 0.514746 15.7535 0.313814C15.5525 0.112882 15.28 0 14.9958 0C11.665 0.000923506 8.42924 1.11045 5.7987 3.15364C3.16816 5.19684 1.2925 8.05746 0.467457 11.2845C-0.357589 14.5115 -0.085085 17.9213 1.242 20.9764C2.56909 24.0314 4.87527 26.5578 7.79692 28.1573C10.7186 29.7568 14.0895 30.3383 17.3782 29.8103C20.6669 29.2822 23.6863 27.6745 25.9603 25.2407C28.2343 22.8069 29.6335 19.6855 29.9374 16.3686C30.2413 13.0516 29.4326 9.72791 27.6387 6.92142H27.6494ZM17.1387 15C17.1387 15.4238 17.013 15.8381 16.7776 16.1905C16.5421 16.5429 16.2074 16.8175 15.8159 16.9797C15.4243 17.1419 14.9935 17.1844 14.5778 17.1017C14.1621 17.019 13.7803 16.8149 13.4806 16.5152C13.1809 16.2155 12.9768 15.8337 12.8942 15.418C12.8115 15.0024 12.8539 14.5715 13.0161 14.18C13.1783 13.7884 13.4529 13.4537 13.8053 13.2183C14.1577 12.9828 14.572 12.8571 14.9958 12.8571C15.5642 12.8571 16.1092 13.0829 16.5111 13.4848C16.9129 13.8866 17.1387 14.4317 17.1387 15Z" fill="#2277B9"/>
  <defs>
    <linearGradient id="paint0_linear_154_995" x1="-10.2983" y1="12.1222" x2="37.4855" y2="12.1222" gradientUnits="userSpaceOnUse">
      <stop stop-color="#C7DAFD"/>
      <stop offset="1" stop-color="#E9F1FF"/>
    </linearGradient>
    <linearGradient id="paint1_linear_154_995" x1="-0.567568" y1="13.2291" x2="28.8378" y2="13.2291" gradientUnits="userSpaceOnUse">
      <stop stop-color="#C7DAFD"/>
      <stop offset="1" stop-color="#E9F1FF"/>
    </linearGradient>
    <linearGradient id="paint2_linear_154_995" x1="15.6641" y1="9.16216" x2="15.6641" y2="20.1892" gradientUnits="userSpaceOnUse">
      <stop stop-color="#C7DAFD"/>
      <stop offset="1" stop-color="#E9F1FF"/>
    </linearGradient>
  </defs>
</svg>