<svg xmlns="http://www.w3.org/2000/svg" width="36" height="30" viewBox="0 0 36 30" fill="none">
  <path d="M1 29V1L34 1.5V21.5V22V29H1Z" fill="url(#paint0_linear_154_909)"/>
  <path d="M4.41283 5.30283C4.98628 5.30283 5.45115 4.83796 5.45115 4.26451C5.45115 3.69107 4.98628 3.2262 4.41283 3.2262C3.83938 3.2262 3.37451 3.69107 3.37451 4.26451C3.37451 4.83796 3.83938 5.30283 4.41283 5.30283Z" fill="#2277B9"/>
  <path d="M7.56469 5.30283C8.13813 5.30283 8.60301 4.83796 8.60301 4.26451C8.60301 3.69107 8.13813 3.2262 7.56469 3.2262C6.99124 3.2262 6.52637 3.69107 6.52637 4.26451C6.52637 4.83796 6.99124 5.30283 7.56469 5.30283Z" fill="#2277B9"/>
  <path d="M10.7537 5.30283C11.3271 5.30283 11.792 4.83796 11.792 4.26451C11.792 3.69107 11.3271 3.2262 10.7537 3.2262C10.1802 3.2262 9.71533 3.69107 9.71533 4.26451C9.71533 4.83796 10.1802 5.30283 10.7537 5.30283Z" fill="#2277B9"/>
  <path d="M32.9666 0H2.26205C1.00124 0 0 1.03832 0 2.26205V27.7379C0 28.9988 1.03832 30 2.26205 30H32.9295C34.1904 30 35.1916 28.9617 35.1916 27.7379V2.29913C35.2287 1.03832 34.1904 0 32.9666 0ZM2.26205 1.77998H32.9295C33.2262 1.77998 33.4487 2.00247 33.4487 2.29913V6.78616H1.77998V2.29913C1.77998 2.00247 2.00247 1.77998 2.26205 1.77998ZM32.9666 28.2571H2.26205C1.96539 28.2571 1.74289 28.0346 1.74289 27.7379V8.56613H33.4487V27.7379C33.4487 28.0346 33.2262 28.2571 32.9666 28.2571Z" fill="#2277B9"/>
  <path d="M9.49316 24.178C9.49316 24.6601 9.90107 25.068 10.3832 25.068C10.8652 25.068 11.2731 24.6601 11.2731 24.178V17.0581H9.49316V24.178Z" fill="#2277B9"/>
  <path d="M12.4971 14.3881H11.2733V12.6452C11.2733 12.1632 10.8654 11.7552 10.3833 11.7552C9.90127 11.7552 9.49336 12.1632 9.49336 12.6452V14.3881H8.26963C7.78755 14.3881 7.37964 14.796 7.37964 15.2781C7.37964 15.7602 7.78755 16.1681 8.26963 16.1681H12.4971C12.9791 16.1681 13.3871 15.7602 13.3871 15.2781C13.3871 14.796 12.9791 14.3881 12.4971 14.3881Z" fill="#2277B9"/>
  <path d="M23.9553 24.178C23.9553 24.6601 24.3632 25.068 24.8453 25.068C25.3274 25.068 25.7353 24.6601 25.7353 24.178V17.0581H23.9553V24.178Z" fill="#2277B9"/>
  <path d="M26.9595 14.3881H25.7357V12.6452C25.7357 12.1632 25.3278 11.7552 24.8457 11.7552C24.3637 11.7552 23.9558 12.1632 23.9558 12.6452V14.3881H22.732C22.25 14.3881 21.842 14.796 21.842 15.2781C21.842 15.7602 22.25 16.1681 22.732 16.1681H26.9595C27.4415 16.1681 27.8495 15.7602 27.8495 15.2781C27.8495 14.796 27.4415 14.3881 26.9595 14.3881Z" fill="#2277B9"/>
  <path d="M16.7241 24.1779C16.7241 24.66 17.132 25.0679 17.6141 25.0679C18.0962 25.0679 18.5041 24.66 18.5041 24.1779V22.4351H16.7241V24.1779Z" fill="#2277B9"/>
  <path d="M19.7283 19.7651H18.5045V12.6452C18.5045 12.1632 18.0966 11.7552 17.6145 11.7552C17.1325 11.7552 16.7246 12.1632 16.7246 12.6452V19.7651H15.5008C15.0188 19.7651 14.6108 20.173 14.6108 20.6551C14.6108 21.1372 15.0188 21.5451 15.5008 21.5451H19.7283C20.2103 21.5451 20.6183 21.1372 20.6183 20.6551C20.6183 20.173 20.2103 19.7651 19.7283 19.7651Z" fill="#2277B9"/>
  <defs>
    <linearGradient id="paint0_linear_154_909" x1="21.1525" y1="-12.2432" x2="21.1525" y2="39.2162" gradientUnits="userSpaceOnUse">
      <stop stop-color="#C7DAFD"/>
      <stop offset="1" stop-color="#E9F1FF"/>
    </linearGradient>
  </defs>
</svg>