<svg width="48" height="48" viewBox="0 0 48 48" fill="none" xmlns="http://www.w3.org/2000/svg">
<path d="M23.4742 4C32.6787 4 37.281 4 40.1405 6.92893C42.2498 9.08945 42.8032 12.2213 42.9484 17.5L43 19H19.0809H17.6164H4V17.5C4.14518 12.2213 4.69856 9.08945 6.80785 6.92893C9.66734 4 14.2696 4 23.4742 4Z" fill="#F1A640" fill-opacity="0.18"/>
<path d="M43 19H19.0809H17.6164M43 19L42.9484 17.5C42.8032 12.2213 42.2498 9.08945 40.1405 6.92893C37.281 4 32.6787 4 23.4742 4C14.2696 4 9.66734 4 6.80785 6.92893C4.69856 9.08945 4.14518 12.2213 4 17.5V19H17.6164M43 19H17.6164M17.6164 20.5C17.6164 29.6773 17.6164 34.8227 17.6164 44V20.5ZM17.6164 20.5V19" stroke="#F1A640" stroke-width="1.5" stroke-linecap="round"/>
<path d="M26 12C26 13.1046 25.1046 14 24 14C22.8954 14 22 13.1046 22 12C22 10.8954 22.8954 10 24 10C25.1046 10 26 10.8954 26 12Z" fill="#F1A640"/>
<path d="M20 12C20 13.1046 19.1046 14 18 14C16.8954 14 16 13.1046 16 12C16 10.8954 16.8954 10 18 10C19.1046 10 20 10.8954 20 12Z" fill="#F1A640"/>
<path d="M14 12C14 13.1046 13.1046 14 12 14C10.8954 14 10 13.1046 10 12C10 10.8954 10.8954 10 12 10C13.1046 10 14 10.8954 14 12Z" fill="#F1A640"/>
<path d="M4 23.8C4 32.851 4 37.3764 6.92893 40.1882C8.94937 42.1278 11.8192 42.7295 16.5 42.9161L18 43V20.44V19H4.05289L4.00677 20.44C4 21.4852 4 22.603 4 23.8Z" fill="#F1A640" fill-opacity="0.18" stroke="#F1A640" stroke-width="1.5" stroke-linecap="round"/>
<path d="M44 24C44 33.4281 44 38.1421 41.0711 41.0711C38.1421 44 33.4281 44 24 44C22.363 44 19.3681 44 18 43.9847V42L18 20.5V19L44 19L43.9932 20.5C44 21.5887 44 22.7531 44 24Z" fill="url(#paint0_linear_173_1116)"/>
<defs>
<linearGradient id="paint0_linear_173_1116" x1="18" y1="31.5" x2="44" y2="31.5" gradientUnits="userSpaceOnUse">
<stop stop-color="#E9442F"/>
<stop offset="1" stop-color="#F29531"/>
</linearGradient>
</defs>
</svg>
